<?xml version="1.0" standalone="no"?>
<!DOCTYPE svg PUBLIC "-//W3C//DTD SVG 1.1//EN" "http://www.w3.org/Graphics/SVG/1.1/DTD/svg11.dtd" >
<svg xmlns="http://www.w3.org/2000/svg">
<metadata>Generated by IcoMoon</metadata>
<defs>
<font id="haxicons" horiz-adv-x="512">
<font-face units-per-em="512" ascent="480" descent="-32" />
<missing-glyph horiz-adv-x="512" />
<glyph unicode="&#x20;" d="" horiz-adv-x="256" />
<glyph unicode="&#x21;" d="M505.216 60.624l-191.984 384c-10.832 21.68-32.976 35.376-57.232 35.376s-46.4-13.696-57.232-35.376l-191.984-384c-9.92-19.84-8.864-43.408 2.8-62.288 11.664-18.848 32.256-30.336 54.432-30.336h383.952c22.192 0 42.784 11.488 54.432 30.336 11.664 18.88 12.72 42.448 2.816 62.288zM287.968 48c0-8.848-7.152-16-16-16h-32c-8.848 0-16 7.152-16 16v32c0 8.848 7.152 16 16 16h32c8.848 0 16-7.152 16-16v-32zM287.968 176c0-8.848-7.152-16-16-16h-32c-8.848 0-16 7.152-16 16v160c0 8.832 7.152 16 16 16h32c8.848 0 16-7.168 16-16v-160z" />
<glyph unicode="&#x6d;" d="M122.132 224c0-33.726-27.34-61.066-61.066-61.066s-61.066 27.341-61.066 61.066c0 33.726 27.34 61.066 61.066 61.066s61.066-27.341 61.066-61.066zM512 224c0-33.726-27.341-61.066-61.066-61.066s-61.066 27.341-61.066 61.066c0 33.726 27.341 61.066 61.066 61.066s61.066-27.341 61.066-61.066zM317.066 224c0-33.726-27.341-61.066-61.066-61.066s-61.066 27.341-61.066 61.066c0 33.726 27.34 61.066 61.066 61.066s61.066-27.341 61.066-61.066z" />
<glyph unicode="&#xe600;" d="M354.72 342.016c-43.312 8.912-87.28 13.424-130.64 13.424s-87.312-4.512-130.64-13.424c-5.6-1.152-10.176-5.216-11.984-10.672-23.072-70.096-23.072-141.168 0-211.264 1.792-5.44 6.368-9.504 11.984-10.656 43.328-8.896 87.28-13.424 130.64-13.424 43.344 0 87.328 4.528 130.64 13.44 5.632 1.152 10.192 5.216 12 10.656 23.056 70.096 23.056 141.168 0 211.264-1.808 5.44-6.384 9.504-12 10.656zM351.504 125.088c-84.944-17.44-169.904-17.44-254.832 0-22.096 67.088-22.096 134.16 0 201.264 84.944 17.456 169.904 17.456 254.832 0 22.096-67.088 22.096-134.16 0-201.264zM493.664 378.88c-3.088 13.024-14 22.752-27.28 24.352-69.76 8.48-140.512 12.768-210.304 12.768-69.776 0-140.528-4.288-210.288-12.752-13.28-1.616-24.176-11.328-27.264-24.368-24.464-102.768-24.464-206.976 0-309.76 3.088-13.024 13.984-22.752 27.264-24.336 33.616-4.096 67.456-7.088 101.296-9.216-1.824-1.168-3.008-2.352-3.008-3.568 0-8.848 50.144-16 112-16s112 7.152 112 16c0 1.216-1.184 2.4-3.008 3.568 33.84 2.128 67.68 5.12 101.28 9.216 13.28 1.6 24.192 11.312 27.28 24.336 24.496 102.784 24.496 206.992 0.032 309.76zM462.528 76.528c-137.632-16.688-275.264-16.688-412.88 0-23.408 98.32-23.408 196.64 0 294.944 137.632 16.704 275.264 16.704 412.88 0 23.408-98.304 23.408-196.624 0-294.944zM424.096 288c13.248 0 24 10.752 24 24s-10.752 24-24 24-24-10.752-24-24 10.752-24 24-24zM424.096 320c4.4 0 8-3.6 8-8s-3.6-8-8-8-8 3.6-8 8 3.584 8 8 8zM440.096 128c4.4 0 8-3.568 8-8 0-4.4-3.6-8-8-8h-48c-4.432 0-8 3.6-8 8 0 4.432 3.568 8 8 8h48zM456.096 176c4.4 0 8-3.568 8-8 0-4.4-3.6-8-8-8h-48c-4.432 0-8 3.6-8 8 0 4.432 3.568 8 8 8h48zM456.096 224c4.4 0 8-3.584 8-8s-3.6-8-8-8h-48c-4.432 0-8 3.584-8 8s3.568 8 8 8h48zM216.080 291.136c4.416 0.176 8-3.264 8-7.68s-3.6-8.128-8-8.288l-59.984-4.112c-4.368-0.448-8.432-4.384-9.024-8.736l-2.672-30.32c-0.176-4.4-3.92-8-8.288-8-4.384 0-7.792 3.6-7.568 8l4.88 44.576c0.736 4.352 4.912 8.32 9.28 8.816l73.376 5.744z" />
<glyph unicode="&#xe601;" d="M431.968 255.952c0 79.392-64.592 144-144 143.984v0.064c-4.4 0.016-7.968 3.6-7.968 8 0 4.416 3.568 8 8 8 0.16 0 0.288-0.064 0.4-0.096 88.128-0.208 159.472-71.632 159.568-159.776 0-0.048 0.032-0.080 0.032-0.128 0-4.416-3.6-7.984-8-7.984s-7.968 3.552-8 7.936h-0.032zM145.936 465.952c-9.168 9.184-21.456 14.048-33.952 14.048-6.176 0-12.4-1.184-18.336-3.648-17.952-7.424-29.648-24.928-29.648-44.352l-0.016-220.112-49.92-49.952c-18.752-18.72-18.752-49.12 0-67.872l112-112c9.376-9.376 21.648-14.064 33.936-14.064s24.56 4.688 33.936 14.064l49.936 49.936h220.096c19.44 0 36.944 11.68 44.336 29.632 7.44 17.936 3.344 38.592-10.4 52.32l-351.968 352zM221.248 54.624l-49.936-49.936c-4.080-4.064-8.848-4.688-11.312-4.688s-7.232 0.624-11.312 4.688l-112 112c-4.080 4.096-4.688 8.848-4.688 11.312s0.608 7.248 4.688 11.312l49.92 49.936c0.144 0.16 0.192 0.336 0.336 0.496l134.8-134.816c-0.144-0.112-0.352-0.144-0.496-0.304zM243.872 64c-2.48 0-4.784-0.88-7.152-1.408l-142.16 142.16c0.544 2.368 1.424 4.672 1.424 7.136l0.016 192.736 340.592-340.624h-192.72zM478.752 73.872c-2.464-6-8.288-9.872-14.784-9.872h-4.752l-363.216 363.248v4.752c0 6.496 3.872 12.304 9.872 14.784 1.968 0.816 4.016 1.216 6.112 1.216 4.288 0 8.304-1.664 11.312-4.672l351.984-352.016c4.592-4.592 5.968-11.44 3.472-17.44zM287.968 448c-8.816 0.016-15.968 7.184-15.968 16 0 8.848 7.152 16 16 16 0.16 0 0.288-0.064 0.4-0.080 123.472-0.224 223.472-100.304 223.568-223.792 0-0.048 0.032-0.080 0.032-0.128 0-8.848-7.152-16-16-16-8.816 0-15.968 7.136-16 15.936h-0.032c0 105.872-86.128 192-192 192v0.064z" />
<glyph unicode="&#xe602;" d="M480 384h-14.192c-8.4 0-16.464-3.312-22.464-9.216l-43.344-42.752v19.968c0 26.512-21.504 48-48 48h-304c-26.464 0-48-21.52-48-48v-256c0-26.496 21.488-48 48-48h304c26.496 0 48 21.504 48 48v19.536l43.344-42.752c6-5.904 14.064-9.216 22.464-9.216h14.192c17.664 0 32 14.32 32 32v256.432c0 17.68-14.336 32-32 32zM48 80c-8.832 0-16 7.184-16 16v256c0 8.848 7.152 16 16 16h304c8.816 0 16-7.168 16-16v-256c0-8.816-7.184-16-16-16h-304zM480 95.568h-16l-64 64v0.432l-16 16v96l80 80h16v-256.432z" />
<glyph unicode="&#xe603;" d="M497.76 26.624c-3.216 2.128-61.568 40.4-148.368 59.184 31.84 40.336 52.288 94.592 60.976 130.704 12.064 50.048 7.376 147.968-40.688 208.992-28.096 35.664-67.408 54.496-113.68 54.496s-85.584-18.848-113.664-54.496c-48.064-61.008-52.736-158.928-40.688-208.976 8.688-36.112 29.12-90.368 60.976-130.704-86.8-18.784-145.152-57.056-148.352-59.184-11.728-7.808-16.976-22.4-12.88-35.872 4.064-13.52 16.528-22.768 30.608-22.768h448c14.096 0 26.528 9.248 30.624 22.752 4.112 13.472-1.136 28.064-12.864 35.872zM324.272 105.632l-5.216-6.624c-38.16-43.84-87.92-43.84-126.064 0l-5.232 6.624c-44.56 56.464-66.672 131.152-57.152 202.4 8.72 68.464 47.952 139.968 125.392 139.968s116.688-71.52 125.408-139.984c9.488-71.28-12.544-145.888-57.136-202.384zM32 0c2.208 1.472 56.416 37.024 137.376 54.528l39.744 8.592c14.192-9.312 29.76-15.12 46.88-15.12 17.136 0 32.688 5.808 46.88 15.12l39.744-8.592c80.32-17.376 134.336-52.528 137.376-54.528h-448z" />
<glyph unicode="&#xe604;" d="M320 479.92c-106.032 0-192-85.968-192-192 0-32.416 8.112-62.928 22.32-89.728l-133.504-133.472 0.112-0.096c-10.432-10.256-16.928-24.464-16.928-40.256 0-31.184 25.28-56.464 56.464-56.464 15.76 0 29.984 6.496 40.24 16.944l-0.032 0.032 133.456 133.44c26.816-14.256 57.376-22.4 89.872-22.4 106.032 0 192 85.968 192 192s-85.968 192-192 192zM76.72 4.848c-5.152-5.344-12.288-8.688-20.256-8.688-15.6 0-28.24 12.624-28.24 28.224 0 7.968 3.36 15.088 8.688 20.256l-0.144 0.128 129.056 129.056c11.28-15.216 24.72-28.656 39.904-39.968l-129.008-129.008zM320 127.904c-88.352 0-160 71.664-160 160 0 88.352 71.648 160 160 160 88.336 0 160-71.648 160-160 0-88.336-71.664-160-160-160zM320 399.92c4.4 0 8-3.584 8-8s-3.6-8-8-8c-53.024 0-96-42.992-96-96 0-4.416-3.584-8-8-8s-8 3.584-8 8c0 61.856 50.128 112 112 112z" />
<glyph unicode="&#xe605;" d="M486.256 277.12l-49.024 9.824c-2.464 7.088-5.376 13.968-8.592 20.624l27.776 41.664c8.464 12.688 6.784 29.6-4 40.368l-30.784 30.784c-6.192 6.192-14.368 9.376-22.656 9.376-6.128 0-12.32-1.76-17.712-5.376l-41.664-27.76c-6.688 3.232-13.568 6.112-20.656 8.576l-9.824 49.040c-2.976 14.976-16.128 25.728-31.376 25.728h-43.52c-15.248 0-28.384-10.768-31.376-25.728l-9.824-49.040c-7.088-2.464-13.968-5.36-20.624-8.576l-41.648 27.76c-5.424 3.616-11.6 5.376-17.744 5.376-8.272 0-16.448-3.184-22.64-9.376l-30.768-30.784c-10.784-10.784-12.464-27.68-4-40.368l27.76-41.664c-3.232-6.672-6.112-13.552-8.576-20.64l-49.056-9.808c-14.96-2.992-25.728-16.128-25.728-31.376v-43.52c0-15.248 10.768-28.4 25.728-31.376l49.040-9.84c2.464-7.088 5.36-13.968 8.576-20.624l-27.744-41.664c-8.464-12.688-6.784-29.6 4-40.368l30.784-30.784c6.192-6.192 14.368-9.376 22.64-9.376 6.144 0 12.336 1.776 17.728 5.376l41.664 27.776c6.672-3.248 13.552-6.128 20.64-8.592l9.808-49.024c2.992-14.976 16.128-25.744 31.376-25.744h43.52c15.248 0 28.4 10.784 31.376 25.744l9.84 49.024c7.088 2.464 13.968 5.376 20.624 8.592l41.664-27.776c5.408-3.6 11.6-5.376 17.712-5.376 8.288 0 16.464 3.184 22.656 9.376l30.784 30.784c10.784 10.784 12.464 27.68 4 40.368l-27.776 41.664c3.248 6.688 6.128 13.568 8.592 20.656l49.024 9.808c14.96 2.96 25.744 16.128 25.744 31.376v43.52c0 15.248-10.784 28.384-25.744 31.376zM430.944 192.4c-11.12-2.224-20.224-10.16-23.936-20.88-2.064-5.904-4.464-11.632-7.152-17.184-4.976-10.224-4.128-22.288 2.16-31.712l27.776-41.664-30.784-30.784-41.664 27.776c-5.344 3.568-11.536 5.376-17.744 5.376-4.752 0-9.536-1.056-13.936-3.184-5.568-2.688-11.28-5.12-17.216-7.184-10.688-3.712-18.624-12.816-20.848-23.936l-9.84-49.056h-43.52l-9.808 49.056c-2.224 11.12-10.16 20.224-20.864 23.936-5.904 2.064-11.648 4.464-17.2 7.152-4.416 2.16-9.184 3.216-13.952 3.216-6.224 0-12.4-1.808-17.744-5.376l-41.664-27.776-30.784 30.784 27.76 41.664c6.288 9.44 7.104 21.504 2.192 31.68-2.688 5.568-5.104 11.28-7.168 17.216-3.712 10.688-12.832 18.624-23.936 20.848l-49.040 9.84-0.032 43.536 49.056 9.808c11.104 2.224 20.224 10.16 23.936 20.864 2.064 5.904 4.448 11.648 7.152 17.2 4.96 10.208 4.128 22.272-2.176 31.696l-27.744 41.664 30.768 30.784 41.664-27.76c5.344-3.568 11.536-5.376 17.744-5.376 4.752 0 9.52 1.056 13.936 3.184 5.552 2.688 11.28 5.104 17.2 7.168 10.704 3.712 18.64 12.832 20.864 23.936l9.824 49.040 43.52 0.016 9.808-49.056c2.224-11.104 10.16-20.224 20.88-23.936 5.904-2.064 11.632-4.448 17.184-7.152 4.432-2.144 9.184-3.2 13.968-3.2 6.224 0 12.4 1.808 17.744 5.376l41.664 27.76 30.784-30.784-27.776-41.664c-6.288-9.44-7.088-21.488-2.192-31.68 2.688-5.552 5.12-11.28 7.184-17.2 3.712-10.704 12.816-18.64 23.936-20.864l49.024-9.824 0.048-43.52-49.056-9.824zM256 335.984c-61.84 0-112-50.16-112-112 0-61.856 50.16-112 112-112s112 50.16 112 112c0 61.84-50.16 112-112 112zM256 125.968c-54.112 0-98 43.904-98 98 0 54.112 43.888 98 98 98 54.096 0 98-43.888 98-98 0-54.096-43.904-98-98-98zM256 287.984c-35.36 0-64-28.64-64-64 0-35.344 28.64-64 64-64 35.344 0 64 28.656 64 64s-28.656 64-64 64zM256 175.968c-26.496 0-48 21.504-48 48s21.504 48 48 48 48-21.504 48-48c0-26.496-21.504-48-48-48z" />
<glyph unicode="&#xe606;" d="M256 319.984c-70.704 0-128-57.296-128-128 0-70.688 57.296-128 128-128 70.688 0 128 57.312 128 128s-57.312 128-128 128zM328.88 129.504c-34.496-40.256-95.088-44.912-135.344-10.4-40.272 34.496-44.912 95.104-10.4 135.344 34.48 40.272 95.088 44.912 135.344 10.4 40.24-34.48 44.896-95.104 10.4-135.344zM256 255.984c4.416 0 8-3.584 8-8s-3.584-8-8-8c-26.512 0-47.984-21.488-48-47.984v-0.032c0-4.4-3.584-8-8-8s-8 3.6-8 8v0.032c0.016 35.328 28.656 63.984 64 63.984zM471.872 335.328l-69.344 11.568-21.968 54.944c-7.344 18.32-24.848 30.16-44.56 30.16h-160c-19.712 0-37.216-11.84-44.576-30.176l-21.952-54.928-69.328-11.568c-23.264-3.856-40.144-23.76-40.144-47.328v-240c0-26.464 21.536-48 48-48h416c26.464 0 48 21.536 48 48v240c0 23.568-16.88 43.472-40.128 47.328zM480 48c0-8.848-7.152-16-16-16h-416c-8.848 0-16 7.152-16 16v240c0 7.824 5.664 14.496 13.376 15.776l87.104 14.512 28.656 71.648c2.448 6.064 8.32 10.064 14.864 10.064h160c6.528 0 12.4-3.984 14.848-10.064l28.656-71.648 87.12-14.512c7.712-1.28 13.376-7.952 13.376-15.776v-240z" />
<glyph unicode="&#xe607;" d="M400 272v64c0 79.536-64.464 144-144 144s-144-64.464-144-144v-64c-26.512 0-48-21.488-48-48v-112c0-79.536 64.464-144 144-144h96c79.536 0 144 64.464 144 144v112c0 26.528-21.504 48-48 48zM144 336c0 61.856 50.144 112 112 112s112-50.144 112-112v-64h-32v63.968c0 44.192-35.808 80-80 80s-80-35.808-80-80v-63.968h-32v64zM320 336v-64h-128v64c0 35.344 28.656 64 64 64s64-28.656 64-64zM416 176v-64c0-61.744-50.256-112-112-112h-96c-61.744 0-112 50.256-112 112v112c0 8.832 7.168 16 16 16 10.672 0 21.328 0 32 0h224c10.656 0 21.312 0 32 0 8.816 0 16-7.168 16-16v-48zM256 176c17.664 0 32-14.32 32-32 0-9.744-5.248-28.288-10.656-42.912-4.368-11.808-8.832-21.056-21.344-21.056-11.504 0-16.976 9.344-21.328 21.216-5.344 14.592-10.672 33.040-10.672 42.752 0 17.68 14.336 32 32 32z" />
<glyph unicode="&#xe608;" d="M256 480c-97.216 0-176-78.784-176-176 0-64.496 59.008-132.848 80.496-192.88 32.048-89.52 28.496-143.12 95.504-143.12 68 0 63.44 53.344 95.504 142.752 21.552 60.16 80.496 129.248 80.496 193.248 0 97.216-78.816 176-176 176zM297.472 45.184l-79.328-9.904c-2.832 8.192-5.872 17.776-9.568 30.288-0.048 0.16-0.112 0.336-0.144 0.496l99.008 12.368c-1.408-4.72-2.912-9.68-4.224-14.128-2.096-7.184-3.968-13.424-5.744-19.12zM203.776 81.472c-2.912 9.632-6.192 19.776-9.84 30.528h124.256c-1.968-5.744-3.936-11.504-5.632-16.944l-108.784-13.584zM256 0c-16.208 0-23.664 1.872-31.952 20l67.808 8.496c-9.824-26.464-16.976-28.496-35.856-28.496zM330.752 144h-149.328c-7.968 17.28-17.536 34.56-26.976 51.472-20.88 37.36-42.448 76-42.448 108.528 0 79.408 64.592 144 144 144s144-64.592 144-144c0-32.288-21.6-71.136-42.496-108.72-9.344-16.848-18.848-34.096-26.752-51.28zM256 400c4.4 0 8-3.584 8-8s-3.584-8-8-8c-44.112 0-80-35.888-80-80 0-4.416-3.584-8-8-8s-8 3.584-8 8c0 52.944 43.056 96 96 96z" />
<glyph unicode="&#xe609;" d="M470.32 438.72c-26.32 26.288-60.976 41.28-95.136 41.28-28.816 0-55.344-10.688-74.72-30.032l-77.872-78.464c-0.24-0.224-0.512-0.368-0.752-0.608-0.128-0.128-0.208-0.304-0.336-0.416l0.032-0.032-165.264-166.544c-7.616-7.568-13.136-16.992-16.208-27.28l-37.584-136.128c-0.032-0.368-2.48-11.056-2.48-16.496 0-30.912 25.104-56 56.064-56 6.16 0 18.080 2.944 18.512 3.008l135.648 35.664c10.304 3.056 19.664 8.624 27.28 16.256l244.208 246.128c44.416 44.448 39.408 118.944-11.392 169.664zM256.224 99.28c-1.312 14.432-5.392 28.592-11.504 42.032l151.28 151.264c9.248-29.216 4.496-59.776-15.776-80.064-0.128-0.128-0.288-0.208-0.4-0.336l0.224-0.208-123.648-124.64c0 3.984 0.192 7.888-0.176 11.952zM236.688 155.904c-5.968 9.808-12.752 19.28-21.152 27.664-9.776 9.776-20.992 17.44-32.704 23.872l152.512 152.512c11.968-5.312 23.44-12.88 33.568-23.008 8.656-8.624 15.344-18.288 20.496-28.336l-152.72-152.704zM167.776 215.008c-14.816 5.968-30.336 9.376-45.888 9.584l123.248 124.192c18.864 18.4 46.336 23.696 73.392 16.992l-150.752-150.768zM66.672 2.032c-1.744-0.4-7.168-1.776-10.848-2.032-13.152 0.16-23.824 10.848-23.824 24 0.192 2.688 1.264 7.312 1.632 8.992l16.848 61.024c18.288 0.496 37.968-6.624 53.44-22.128 15.712-15.68 23.104-35.744 22.304-54.256l-59.552-15.6zM141.984 21.808c-0.384 21.472-9.12 43.808-26.752 61.408-16.672 16.688-38.496 26.32-60.256 27.184l15.936 57.712c1.152 3.84 3.44 7.632 6.256 10.944 32.096 22.976 81.456 16.192 115.744-18.128 36.272-36.256 41.872-89.376 13.936-121.088-1.856-0.976-3.728-1.904-5.744-2.496l-59.12-15.536zM459.056 291.648l-26.944-27.152c0 3.616 0.432 7.088 0.096 10.784-2.816 30.96-17.248 60.896-40.688 84.304-26.064 26.080-60.624 41.040-94.848 41.136l26.496 26.72c13.264 13.232 31.776 20.56 52.016 20.56 25.744 0 52.192-11.648 72.528-31.92 19.088-19.056 30.464-42.736 32.096-66.688 1.504-22.352-5.872-42.848-20.752-57.744z" />
<glyph unicode="&#xe60a;" d="M432 400.064l-352-0.064c-8.848 0-16-7.088-16-15.936v-224c0-8.848 7.152-16 16-16h352c8.848 0 16 7.152 16 16v224c0 8.848-7.152 16-16 16zM432 160h-352v224.064h352v-224.064zM464 464h-416c-26.512 0-48-21.472-48-48v-320c0-26.464 21.408-47.904 47.84-47.968h160.16v-19.472l-99.872-12.976c-7.136-1.776-12.128-8.176-12.128-15.52 0-8.848 7.152-16 16-16h288c8.848 0 16 7.152 16 16 0 7.344-4.992 13.744-12.128 15.536l-99.872 12.96v19.472h160.16c26.432 0.064 47.84 21.504 47.84 47.968v320c0 26.528-21.504 48-48 48zM480 96c0-8.816-7.184-16-16-16h-416c-8.832 0-16 7.184-16 16v320c0 8.832 7.168 16 16 16h416c8.816 0 16-7.168 16-16v-320z" />
<glyph unicode="&#xe60b;" d="M256.032 196.064c52.944 0 96 43.072 96 96s-43.056 96-96 96c-52.944 0-96-43.056-96-96s43.056-96 96-96zM256.032 372.064c44.128 0 80-35.872 80-80s-35.872-80-80-80c-44.128 0-80 35.872-80 80s35.872 80 80 80zM256 480c-105.888 0-192-85.056-192-192.016 0-112 96.016-226.576 166.016-307.104 0.256-0.32 11.488-12.88 25.376-12.88 0.032 0 1.168 0 1.232 0 13.872 0 25.12 12.56 25.376 12.88 70.032 80.528 166.032 195.088 166.032 307.104 0 106.96-86.128 192.016-192.032 192.016zM257.872 1.872c-0.336-0.32-1.312-1.024-2.16-1.568-0.16 0.432-1.344 1.376-2.064 2.128-58.64 67.472-157.648 181.344-157.648 285.552 0 88.224 71.792 160.016 160 160.016 88.256 0 160.032-71.792 160.032-160.032 0-104.192-99.008-218.064-158.16-286.096z" />
<glyph unicode="&#xe60c;" d="M256 368c4.416 0 8-3.584 8-8s-3.6-8-8-8c-85.232 0-160-44.864-160-96 0-4.416-3.584-8-8-8s-8 3.584-8 8c0 60.704 80.592 112 176 112zM256 448c-141.392 0-256-85.968-256-192 0-66.032 44.464-124.256 112.128-158.816 0-0.432-0.128-0.72-0.128-1.184 0-28.688-21.424-59.568-30.848-75.776 0.016 0 0.032 0 0.032 0-0.752-1.76-1.184-3.696-1.184-5.728 0-8 6.48-14.496 14.496-14.496 1.504 0 4.144 0.4 4.080 0.224 50 8.192 97.104 54.128 108.048 67.44 15.984-2.352 32.464-3.664 49.376-3.664 141.36 0 256 85.968 256 192s-114.624 192-256 192zM256 96c-14.672 0-29.728 1.12-44.736 3.312-1.552 0.256-3.104 0.336-4.64 0.336-9.504 0-18.608-4.224-24.736-11.68-6.848-8.336-26.336-26.944-49.36-40.624 6.24 14.32 11.12 30.368 11.456 46.912 0.096 1.024 0.144 2.064 0.144 2.944 0 12.032-6.736 23.024-17.44 28.496-59.296 30.272-94.688 78.992-94.688 130.304 0 88.224 100.48 160 224 160 123.488 0 224-71.776 224-160s-100.496-160-224-160z" />
<glyph unicode="&#xe60d;" d="M510.784 184.72l-64.032 240.096c-3.872 13.648-16.528 23.184-30.752 23.184h-320c-14.24 0-26.88-9.536-30.752-23.184l-64.032-240.096c-0.816-2.912-1.216-5.84-1.216-8.72v-112c0-35.344 28.656-64 64-64h384c35.344 0 64 28.656 64 64v112c0 2.88-0.4 5.808-1.216 8.72zM480 64c0-17.632-14.368-32-32-32h-384c-17.648 0-32 14.368-32 32v112l64.016 240.016h319.952l64.032-240.016v-112zM379.872 384h-247.744c-7.248 0-13.6-4.88-15.472-11.888l-55.12-192c-1.264-4.816-0.256-9.936 2.784-13.872s7.712-6.24 12.672-6.24h73.088l23.152-46.32c5.44-10.832 16.512-17.68 28.64-17.68h108.256c12.128 0 23.184 6.848 28.624 17.68l23.152 46.32h73.088c4.976 0 9.664 2.32 12.688 6.256s4.032 9.056 2.784 13.872l-55.12 192c-1.872 7.008-8.224 11.872-15.472 11.872zM388.496 192h-26.592c-12.192 0-23.152-6.752-28.624-17.68l-23.152-46.32h-108.256l-23.152 46.32c-5.472 10.928-16.432 17.68-28.624 17.68h-64.752l46.784 176h247.744l46.784-176h-38.16z" />
<glyph unicode="&#xe60e;" d="M449.776 399.648l-19.44 58.48c-4.336 13.072-16.56 21.872-30.336 21.872h-288c-13.792 0-26-8.8-30.368-21.872l-19.6-58.512c-16.704-1.072-30.032-14.64-30.032-31.616v-48c0-17.664 14.336-32 32-32h16.544c0-1.2-0.48-2.336-0.336-3.536l32-288c1.792-16.176 15.472-28.464 31.792-28.464h224c16.32 0 30 12.288 31.776 28.464l32 288c0.16 1.2-0.336 2.336-0.336 3.536h16.56c17.664 0 32 14.336 32 32v48c0 17.040-13.44 30.672-30.224 31.648zM112 448h288l16-48h-320l16 48zM144 0l-5.328 48h234.656l-5.328-48h-224zM375.088 64h-238.208l-17.776 160h273.776l-17.792-160zM394.656 240h-277.328l-5.328 48h288l-5.344-48zM448 320h-384v48h384v-48z" />
<glyph unicode="&#xe60f;" d="M384 480h-256c-26.528 0-48-21.488-48-48v-416c0-26.528 21.488-48 48-48h256c26.496 0 48 21.504 48 48v416c0 26.528-21.504 48-48 48zM400 16c0-8.816-7.184-16-16-16h-256c-8.832 0-16 7.152-16 16v32.064h288v-32.064zM400 64.064h-288v319.936h288v-319.936zM400 400h-288v32c0 8.832 7.168 16 16 16h256c8.816 0 16-7.168 16-16v-32zM288 424c0-4.416-3.6-8-8-8h-48c-4.432 0-8 3.584-8 8v0c0 4.432 3.568 8 8 8h48c4.4 0 8-3.568 8-8v0zM272 24.064c0-4.4-3.6-8-8-8h-16c-4.416 0-8 3.6-8 8v0c0 4.432 3.584 8 8 8h16c4.4 0 8-3.568 8-8v0z" />
<glyph unicode="&#xe610;" d="M464 480h-352c-26.512 0-48-21.472-48-48v-32h-16c-26.512 0-48-21.472-48-48v-320c0-35.344 28.656-64 64-64h384c35.344 0 64 28.656 64 64v400c0 26.528-21.504 48-48 48zM480 32c0-17.632-14.368-32-32-32h-384c-17.648 0-32 14.368-32 32v320c0 8.832 7.168 16 16 16h16v-320c0-8.848 7.152-16 16-16s16 7.152 16 16v384c0 8.832 7.168 16 16 16h352c8.816 0 16-7.168 16-16v-400zM311.968 271.92c-4.4 0-8 3.584-8 8s3.6 8 8 8h128c4.432 0 8-3.584 8-8s-3.568-8-8-8h-128zM311.968 319.92c-4.4 0-8 3.584-8 8s3.6 8 8 8h128c4.432 0 8-3.584 8-8s-3.568-8-8-8h-128zM311.968 367.92c-4.4 0-8 3.584-8 8s3.6 8 8 8h128c4.432 0 8-3.584 8-8s-3.568-8-8-8h-128zM264 47.936c4.416 0 8-3.6 8-8 0-4.432-3.6-8-8-8h-128c-4.416 0-8 3.568-8 8 0 4.4 3.584 8 8 8h128zM264 95.936c4.416 0 8-3.6 8-8 0-4.432-3.6-8-8-8h-128c-4.416 0-8 3.568-8 8 0 4.4 3.584 8 8 8h128zM264 143.936c4.416 0 8-3.6 8-8 0-4.432-3.6-8-8-8h-128c-4.416 0-8 3.568-8 8 0 4.4 3.584 8 8 8h128zM440 47.936c4.4 0 8-3.6 8-8 0-4.432-3.6-8-8-8h-128c-4.432 0-8 3.568-8 8 0 4.4 3.568 8 8 8h128zM440 95.936c4.4 0 8-3.6 8-8 0-4.432-3.6-8-8-8h-128c-4.432 0-8 3.568-8 8 0 4.4 3.568 8 8 8h128zM440 143.936c4.4 0 8-3.6 8-8 0-4.432-3.6-8-8-8h-128c-4.432 0-8 3.568-8 8 0 4.4 3.568 8 8 8h128zM440 239.936c4.4 0 8-3.584 8-8s-3.6-8-8-8h-304c-4.416 0-8 3.584-8 8s3.584 8 8 8h304zM440 191.936c4.4 0 8-3.6 8-8 0-4.432-3.6-8-8-8h-304c-4.416 0-8 3.568-8 8 0 4.4 3.584 8 8 8h304zM144 272h112c8.848 0 16 7.152 16 16v111.936c0 8.848-7.152 16-16 16h-112c-8.848 0-16-7.152-16-16v-111.936c0-8.832 7.152-16 16-16zM160 384h80v-80h-80v80z" />
<glyph unicode="&#xe611;" d="M466.624 312.448c-20 5.248-67.024 5.184-135.808 7.008 3.248 15.008 4 28.544 4 52.576 0 57.408-41.824 107.968-78.816 107.968-26.128 0-47.664-21.36-48-47.632-0.352-32.224-10.32-87.872-64-116.096-3.936-2.080-15.2-7.632-16.848-8.352l0.848-0.72c-8.4 7.248-20.048 12.8-32 12.8h-48c-26.464 0-48-21.536-48-48v-256c0-26.464 21.536-48 48-48h48c19.040 0 34.976 11.504 42.688 27.632 0.192-0.064 0.528-0.16 0.752-0.192 1.056-0.288 2.304-0.592 3.824-0.992 0.288-0.080 0.432-0.112 0.736-0.192 9.216-2.288 26.96-6.528 64.88-15.248 8.128-1.856 51.072-11.008 95.552-11.008h87.472c26.656 0 45.872 10.256 57.312 30.848 0.16 0.32 3.84 7.504 6.848 17.216 2.256 7.312 3.088 17.664 0.368 28.16 17.184 11.808 22.72 29.664 26.32 41.28 6.032 19.056 4.224 33.376 0.032 43.632 9.664 9.12 17.904 23.024 21.376 44.256 2.16 13.152-0.16 26.688-6.224 37.952 9.056 10.176 13.184 22.976 13.664 34.816l0.192 3.344c0.112 2.096 0.208 3.392 0.208 8 0 20.208-14 45.984-45.376 54.944zM112 16c0-8.848-7.152-16-16-16h-48c-8.848 0-16 7.152-16 16v256c0 8.848 7.152 16 16 16h48c8.848 0 16-7.152 16-16v-256zM479.632 247.44c-0.32-7.904-3.632-23.44-31.632-23.44-24 0-32 0-32 0-4.432 0-8-3.584-8-8s3.568-8 8-8c0 0 7.008 0 31.008 0s27.152-19.904 25.6-29.504c-1.984-11.936-7.584-34.496-34.608-34.496-26.992 0-38 0-38 0-4.432 0-8-3.568-8-8 0-4.4 3.568-8 8-8 0 0 19.008 0 31.504 0 27.008 0 24.624-20.592 20.752-32.88-5.104-16.144-8.224-31.12-42.256-31.12-11.504 0-26.096 0-26.096 0-4.432 0-8-3.568-8-8 0-4.4 3.568-8 8-8 0 0 11.088 0 25.088 0 17.504 0 18.32-16.56 16.496-22.496-2-6.496-4.368-11.312-4.464-11.536-4.832-8.72-12.624-13.968-29.12-13.968h-87.472c-43.936 0-87.52 9.968-88.64 10.224-66.464 15.312-69.968 16.496-74.144 17.68 0 0-13.536 2.288-13.536 14.096l-0.112 220.992c0 7.504 4.784 14.288 12.704 16.672 0.992 0.384 2.336 0.8 3.296 1.2 73.088 30.272 95.344 96.64 96 151.136 0.096 7.664 6 16 16 16 16.912 0 46.816-33.952 46.816-75.968 0-37.936-1.536-44.496-14.816-84.032 160 0 158.88-2.304 172.992-6 17.504-5.008 19.008-19.504 19.008-24.496 0-5.488-0.16-4.688-0.368-10.064zM72 64c-13.248 0-24-10.752-24-24s10.752-24 24-24 24 10.752 24 24-10.752 24-24 24zM72 32c-4.4 0-8 3.6-8 8s3.6 8 8 8 8-3.6 8-8-3.6-8-8-8z" />
<glyph unicode="&#xe612;" d="M432 480h-352c-35.344 0-64-28.656-64-64v-384c0-35.344 28.656-64 64-64h352c35.344 0 64 28.656 64 64v384c0 35.344-28.656 64-64 64zM464 32c0-17.632-14.368-32-32-32h-352c-17.648 0-32 14.368-32 32v384c0 17.648 14.352 32 32 32h352c17.632 0 32-14.352 32-32v-384zM416 416h-320c-8.848 0-16-7.152-16-16v-288c0-8.848 7.152-16 16-16h320c8.848 0 16 7.152 16 16v288c0 8.848-7.152 16-16 16zM416 400v-221.904l-52 56.48c-3.056 3.456-7.408 5.424-12 5.424s-8.976-1.968-12-5.424l-41.664-47.2-126.336 143.2c-3.040 3.456-7.408 5.424-12 5.424s-8.96-1.968-12-5.424l-52-59.968v129.392h320zM96 246.4l64 73.6 138.336-156.816 44.192-51.184h-246.528v134.4zM363.84 112l-54.848 63.28 43.008 48.72 64-70.064v-41.936h-52.16zM320 272c26.496 0 48 21.488 48 48s-21.504 48-48 48c-26.528 0-48-21.488-48-48s21.472-48 48-48zM320 352c17.632 0 32-14.352 32-32s-14.368-32-32-32c-17.664 0-32 14.352-32 32s14.336 32 32 32z" />
<glyph unicode="&#xe613;" d="M502.624 358.64l-96 96c-6 6-14.16 9.36-22.624 9.36h-336c-26.464 0-48-21.52-48-48v-384c0-26.464 21.536-48 48-48h416c26.464 0 48 21.536 48 48v304c0 8.496-3.376 16.64-9.376 22.64zM480 32c0-8.848-7.152-16-16-16h-416c-8.848 0-16 7.152-16 16v384c0 8.848 7.152 16 16 16h320v-64h-0.032c0-26.512 21.504-48 48-48h64.032v-288zM431.968 336h-16c-17.632 0-32 14.352-32 32h0.032v64l96-96h-48.032zM248 352c-4.416 0-8 3.568-8 8s3.584 8 8 8h80c4.4 0 8-3.584 8-8s-3.6-8-8-8h-80zM248 304c-4.416 0-8 3.584-8 8s3.584 8 8 8h80c4.4 0 8-3.584 8-8s-3.6-8-8-8h-80zM240 264c0 4.432 3.584 8 8 8h192c4.4 0 8-3.584 8-8s-3.6-8-8-8h-192c-4.416 0-8 3.584-8 8zM440 176c4.4 0 8-3.568 8-8 0-4.4-3.6-8-8-8h-368c-4.416 0-8 3.6-8 8 0 4.432 3.584 8 8 8h368zM440 128c4.4 0 8-3.568 8-8 0-4.4-3.6-8-8-8h-368c-4.416 0-8 3.6-8 8 0 4.432 3.584 8 8 8h368zM440 80c4.4 0 8-3.568 8-8 0-4.4-3.6-8-8-8h-368c-4.416 0-8 3.6-8 8 0 4.432 3.584 8 8 8h368zM440 224c4.4 0 8-3.584 8-8s-3.6-8-8-8h-368c-4.416 0-8 3.568-8 8s3.584 8 8 8h368zM80 256h112c8.848 0 16 7.152 16 16v96c0 8.848-7.152 16-16 16h-112c-8.848 0-16-7.152-16-16v-96c0-8.832 7.152-16 16-16zM96 352h80v-64h-80v64z" />
<glyph unicode="&#xe614;" d="M504.688 477.44c-2.656 1.712-5.68 2.56-8.688 2.56-3.088 0-6.192-0.88-8.88-2.688l-480-320c-4.944-3.28-7.664-9.056-7.024-14.976 0.608-5.904 4.448-11.008 9.968-13.184l125.184-50.096 58.864-103.008c2.816-4.944 8.048-8 13.712-8.064 0.064 0 0.112 0 0.176 0 5.616 0 10.832 2.976 13.712 7.776l33.232 55.408 155.12-62.032c1.904-0.768 3.904-1.136 5.936-1.136 2.72 0 5.408 0.688 7.84 2.064 4.224 2.368 7.12 6.528 7.936 11.312l80 480c1.040 6.288-1.744 12.592-7.088 16.064zM50.176 147.568l370.8 247.216-269.6-288.592c-1.424 0.848-2.688 1.968-4.256 2.592l-96.944 38.784zM163.024 94.944c-0.032 0.064-0.080 0.096-0.112 0.16l303.088 324.4-258.384-402.592-44.592 78.032zM403.472 6.256l-136.656 54.656c-3.248 1.28-6.624 1.712-9.968 1.904l210.432 326.208-63.808-382.768z" />
<glyph unicode="&#xe615;" d="M128 383.664v48.336c0 26.464-21.536 48-48 48s-48-21.536-48-48v-48.336c-19.328-14.64-32-37.568-32-63.664s12.672-49.024 32-63.632v-240.368c0-26.464 21.536-48 48-48s48 21.536 48 48v240.368c19.328 14.592 32 37.536 32 63.632s-12.672 49.024-32 63.664zM64 432c0 8.848 7.152 16 16 16s16-7.152 16-16v-33.6c-5.168 1.040-10.512 1.6-16 1.6s-10.832-0.56-16-1.6v33.6zM96 16c0-8.848-7.152-16-16-16s-16 7.152-16 16v225.632c5.168-1.072 10.512-1.632 16-1.632s10.832 0.56 16 1.632v-225.632zM125.84 306.56c-0.256-0.848-0.48-1.68-0.784-2.528-1.52-4.224-3.472-8.224-6.048-11.776-0.064-0.096-0.16-0.16-0.224-0.256-2.784-3.808-6.096-7.184-9.856-10.032-0.064-0.064-0.112-0.096-0.16-0.128-3.856-2.912-8.16-5.248-12.784-6.88-5.008-1.808-10.336-2.96-15.984-2.96s-10.976 1.152-16 2.976c-4.624 1.632-8.928 3.968-12.784 6.88-0.048 0.032-0.096 0.064-0.16 0.128-3.76 2.848-7.072 6.224-9.856 10.032-0.064 0.096-0.16 0.16-0.224 0.256-2.576 3.568-4.528 7.568-6.048 11.776-0.304 0.848-0.528 1.68-0.784 2.528-1.264 4.272-2.144 8.736-2.144 13.424 0 4.72 0.88 9.184 2.16 13.472 0.256 0.848 0.48 1.68 0.784 2.496 1.504 4.224 3.456 8.224 6.048 11.808 0.064 0.096 0.16 0.16 0.224 0.256 2.784 3.776 6.096 7.184 9.856 10.032 0.064 0.032 0.112 0.096 0.16 0.128 3.84 2.864 8.144 5.216 12.768 6.864 5.024 1.792 10.352 2.944 16 2.944s10.976-1.152 16-2.944c4.624-1.664 8.928-4 12.784-6.88 0.048-0.032 0.096-0.096 0.16-0.128 3.76-2.848 7.072-6.256 9.856-10.032 0.064-0.096 0.16-0.16 0.224-0.256 2.576-3.568 4.528-7.568 6.032-11.792 0.304-0.816 0.544-1.648 0.784-2.496 1.28-4.288 2.16-8.752 2.16-13.472 0-4.688-0.88-9.152-2.16-13.44zM480 383.664v48.336c0 26.464-21.536 48-48 48s-48-21.536-48-48v-48.336c-19.344-14.64-32-37.568-32-63.664s12.656-49.024 32-63.632v-240.368c0-26.464 21.536-48 48-48s48 21.536 48 48v240.368c19.312 14.592 32 37.536 32 63.632s-12.688 49.024-32 63.664zM416 432c0 8.848 7.152 16 16 16s16-7.152 16-16v-33.6c-5.184 1.040-10.528 1.6-16 1.6-5.504 0-10.848-0.56-16-1.6v33.6zM448 16c0-8.848-7.152-16-16-16s-16 7.152-16 16v225.632c5.152-1.072 10.496-1.632 16-1.632 5.472 0 10.816 0.56 16 1.632v-225.632zM477.84 306.56c-0.256-0.848-0.496-1.68-0.784-2.528-1.536-4.224-3.472-8.224-6.064-11.776-0.064-0.096-0.16-0.16-0.224-0.256-2.784-3.808-6.096-7.184-9.84-10.032-0.064-0.064-0.128-0.096-0.16-0.128-3.872-2.912-8.16-5.248-12.784-6.88-5.008-1.808-10.352-2.96-15.984-2.96-5.664 0-10.976 1.152-16 2.976-4.624 1.632-8.944 3.968-12.784 6.88-0.064 0.032-0.096 0.064-0.16 0.128-3.776 2.848-7.088 6.224-9.872 10.032-0.064 0.096-0.16 0.16-0.224 0.256-2.56 3.568-4.528 7.568-6.032 11.776-0.32 0.848-0.528 1.68-0.784 2.528-1.264 4.272-2.144 8.736-2.144 13.424 0 4.72 0.88 9.184 2.16 13.472 0.256 0.848 0.464 1.68 0.784 2.496 1.504 4.224 3.472 8.224 6.032 11.808 0.064 0.096 0.16 0.16 0.224 0.256 2.784 3.776 6.096 7.184 9.872 10.032 0.064 0.032 0.096 0.096 0.16 0.128 3.84 2.88 8.16 5.216 12.784 6.88 5.008 1.776 10.32 2.928 15.984 2.928 5.632 0 10.976-1.152 16-2.944 4.624-1.664 8.912-4 12.784-6.88 0.032-0.032 0.096-0.096 0.16-0.128 3.744-2.848 7.056-6.256 9.84-10.032 0.064-0.096 0.16-0.16 0.224-0.256 2.592-3.6 4.528-7.6 6.064-11.808 0.288-0.816 0.528-1.664 0.784-2.496 1.264-4.272 2.144-8.736 2.144-13.456 0-4.688-0.88-9.152-2.16-13.44zM304 191.664v240.336c0 26.464-21.536 48-48 48s-48-21.536-48-48v-240.336c-19.328-14.624-32-37.568-32-63.664s12.672-49.024 32-63.632v-48.368c0-26.464 21.536-48 48-48s48 21.536 48 48v48.368c19.312 14.592 32 37.536 32 63.632s-12.688 49.024-32 63.664zM240 432c0 8.848 7.152 16 16 16s16-7.152 16-16v-225.6c-5.184 1.024-10.528 1.6-16 1.6-5.488 0-10.832-0.56-16-1.6v225.6zM272 16c0-8.848-7.152-16-16-16s-16 7.152-16 16v33.632c5.168-1.072 10.512-1.632 16-1.632 5.472 0 10.816 0.56 16 1.632v-33.632zM301.84 114.56c-0.256-0.848-0.496-1.68-0.784-2.528-1.536-4.224-3.472-8.224-6.064-11.776-0.064-0.096-0.16-0.16-0.224-0.256-2.784-3.808-6.096-7.184-9.84-10.032-0.064-0.064-0.128-0.096-0.16-0.128-3.872-2.912-8.16-5.248-12.784-6.88-5.008-1.808-10.352-2.96-15.984-2.96-5.648 0-10.976 1.152-16 2.976-4.624 1.632-8.928 3.968-12.784 6.88-0.048 0.032-0.096 0.064-0.16 0.128-3.76 2.848-7.072 6.224-9.856 10.032-0.064 0.096-0.16 0.16-0.224 0.256-2.576 3.568-4.528 7.568-6.048 11.776-0.304 0.848-0.528 1.68-0.784 2.528-1.264 4.272-2.144 8.736-2.144 13.424 0 4.72 0.88 9.184 2.16 13.472 0.256 0.848 0.48 1.68 0.784 2.496 1.52 4.224 3.472 8.224 6.048 11.808 0.064 0.096 0.16 0.16 0.224 0.256 2.784 3.776 6.096 7.184 9.856 10.032 0.064 0.032 0.112 0.096 0.16 0.128 3.856 2.88 8.16 5.216 12.784 6.88 5.008 1.776 10.336 2.928 15.984 2.928 5.632 0 10.976-1.152 16-2.944 4.624-1.664 8.912-4 12.784-6.88 0.032-0.032 0.096-0.096 0.16-0.128 3.744-2.848 7.056-6.256 9.84-10.032 0.064-0.096 0.16-0.16 0.224-0.256 2.592-3.6 4.528-7.6 6.064-11.808 0.288-0.816 0.528-1.664 0.784-2.496 1.264-4.272 2.144-8.736 2.144-13.456 0-4.688-0.88-9.152-2.16-13.44z" />
<glyph unicode="&#xe616;" d="M256 480c-107.904 0-224-32.528-224-104v-304c0-71.44 116.096-104 224-104 107.888 0 224 32.56 224 104v304c0 71.472-116.128 104-224 104zM448 72c0-39.744-85.968-72-192-72-106.048 0-192 32.256-192 72v59.776c33.056-34.064 112.8-51.776 192-51.776s158.944 17.712 192 51.776v-59.776zM448 168h-0.064c0-0.16 0.064-0.336 0.064-0.496 0-39.504-85.968-71.504-192-71.504s-192 32-192 71.504c0 0.16 0.064 0.336 0.064 0.496h-0.064v59.776c33.056-34.064 112.8-51.776 192-51.776s158.944 17.712 192 51.776v-59.776zM448 264h-0.064c0-0.16 0.064-0.336 0.064-0.496 0-39.504-85.968-71.504-192-71.504s-192 32-192 71.504c0 0.16 0.064 0.336 0.064 0.496h-0.064v54.976c41.936-31.952 118.8-46.976 192-46.976s150.064 15.024 192 46.976v-54.976zM256 304c-106.048 0-192 32.256-192 72 0 39.776 85.952 72 192 72 106.032 0 192-32.224 192-72 0-39.744-85.968-72-192-72zM384 64c0 8.837 7.163 16 16 16s16-7.163 16-16c0-8.837-7.163-16-16-16s-16 7.163-16 16zM384 160c0 8.837 7.163 16 16 16s16-7.163 16-16c0-8.837-7.163-16-16-16s-16 7.163-16 16zM384 256c0 8.837 7.163 16 16 16s16-7.163 16-16c0-8.837-7.163-16-16-16s-16 7.163-16 16z" />
<glyph unicode="&#xe617;" d="M400 480c-32.848 0-58.656-22.56-77.184-57.376l-0.336 0.192c-26.912-52.688-66.976-86.816-110.864-86.816h-147.616c-35.888 0-64-35.152-64-80 0-44.88 28.112-80 64-80 17.648-0.064 31.92-14.336 31.92-32v-144c0-17.68 14.336-32 32-32h64c17.664 0 32 14.32 32 32v16c0 16-16 23.152-16 32v112c0 0.368 0.256 0.624 0.288 0.992 0.16 2.288 0.784 4.4 1.792 6.32 0.288 0.528 0.592 0.944 0.944 1.408 1.28 1.904 2.896 3.472 4.864 4.688 0.096 0.064 0.128 0.16 0.224 0.224 0.064 0 0.112 0.064 0.176 0.064 1.28 0.72 2.816 0.88 4.256 1.28 40.384-4.288 76.944-36.88 102.032-85.968l0.4 0.192c18.544-34.704 44.288-57.2 77.104-57.2 73.536 0 112 112.688 112 224s-38.464 224-112 224zM320 256c0 16.592 0.976 32.624 2.624 48h45.376c17.664 0 32-21.504 32-48 0-26.528-14.336-48-32-48h-45.376c-1.648 15.376-2.624 31.376-2.624 48zM32 256c0 26.496 14.336 48 32 48h112.224c-9.92-11.664-16.224-28.592-16.224-48 0-19.44 6.304-36.368 16.224-48h-112.224c-17.664 0-32 21.472-32 48zM191.92 0h-64v144c0 11.664-3.12 22.56-8.592 32h11.168v-0.192h48.128c-1.712-4.976-2.704-10.256-2.704-15.808v-112c0-15.408 8.608-25.664 13.744-31.776 0.704-0.848 1.536-1.712 2.256-2.656v-13.568zM211.616 207.808h-3.616v0.192c-17.664 0-32 21.472-32 48 0 26.496 14.336 48 32 48h3.616c30.176 0 58.432 11.872 83.296 32.288-4.576-25.76-6.912-53.040-6.912-80.288 0-27.344 2.336-54.72 6.944-80.496-24.88 20.432-53.152 32.304-83.328 32.304zM400 64c-32.288 0-60 45.936-72.656 112h40.656c35.872 0 64 35.12 64 80 0 44.848-28.128 80-64 80h-40.656c12.656 66.032 40.368 112 72.656 112 44.192 0 80-85.968 80-192s-35.808-192-80-192z" />
<glyph unicode="&#xe618;" d="M512 352c0 22.496-15.312 41.728-37.216 46.784l-208.208 48.048c-3.488 0.784-7.040 1.168-10.576 1.168s-7.088-0.384-10.8-1.216l-207.984-48c-21.92-5.056-37.216-24.288-37.216-46.784s15.312-41.728 37.2-46.784l42.8-9.872v-135.344c0-42.464 48.608-80 176-80s176 37.536 176 80v135.344l42.784 9.872c21.904 5.056 37.216 24.288 37.216 46.784zM400 160c0-17.68-48-48-144-48s-144 30.32-144 48v127.952l133.408-30.784c3.488-0.784 7.056-1.168 10.592-1.168s7.104 0.384 10.784 1.216l133.216 30.736v-127.952zM259.6 288.4c-1.2-0.256-2.4-0.4-3.6-0.4s-2.416 0.144-3.6 0.4l-208 48c-7.264 1.68-12.4 8.144-12.4 15.6s5.136 13.92 12.4 15.6l208 48c1.184 0.256 2.384 0.4 3.6 0.4s2.416-0.144 3.6-0.4l208-48c7.248-1.68 12.4-8.144 12.4-15.6s-5.152-13.92-12.4-15.6l-208-48zM464 272c0 8.848 7.152 16 16 16 8.832 0 16-7.152 16-16v-144c0-8.848-7.168-16-16-16-8.848 0-16 7.152-16 16v144zM480 96c17.664 0 32-46.336 32-64s-14.336-32-32-32c-17.68 0-32 14.336-32 32s14.32 64 32 64z" />
<glyph unicode="&#xe619;" d="M500 376.992l-80 64c-5.68 4.544-12.752 7.008-20 7.008h-288c-7.264 0-14.32-2.464-20-7.008l-80-64c-10.464-8.384-14.592-22.4-10.352-35.12l32-96c3.152-9.456 10.544-16.912 19.984-20.144 3.36-1.152 6.88-1.728 10.368-1.728 5.568 0 11.088 1.456 16 4.288v-196.288c0-17.664 14.336-32 32-32h288c17.664 0 32 14.336 32 32v196.288c4.912-2.832 10.432-4.288 16-4.288 3.504 0 7.008 0.576 10.368 1.728 9.44 3.232 16.816 10.688 19.968 20.144l32 96c4.256 12.72 0.128 26.736-10.336 35.12zM316.064 416c-8.848-18.576-32.288-32-60.064-32s-51.232 13.424-60.064 32h120.128zM448 256l-48 32v-256h-288v256l-48-32-32 96 80 64h66.832c8.912-27.552 39.936-48 77.168-48 37.216 0 68.256 20.448 77.152 48h66.848l80-64-32-96z" />
<glyph unicode="&#xe61a;" d="M352 336c-0.992-42.8-33.12-78.944-33.12-78.944 0 79.616-62.88 142.944-62.88 142.944s-0.848-47.392-32.688-95.168c-31.84 111.472-127.392 175.168-127.392 175.168 47.776-175.168-15.92-238.88-15.92-366.272 0-74.736 63.264-145.728 160-145.728 143.312 0 171.024 52.608 185.84 111.888 20.416 81.616-10.16 176.496-73.84 256.112zM394.816 87.664c-10.288-41.104-21.904-87.664-154.816-87.664-80.128 0-128 57.824-128 113.728 0 42.816 7.808 77.968 16.064 115.184 10.496 47.184 21.248 95.488 16.592 159.376 49.344-68.304 66.912-158.8 66.912-158.8s45.936 64.496 58.288 94.448c9.456-19.248 18.144-83.936 18.144-147.936 0 0 42.496 35.008 74.368 87.648 33.568-60.192 45.664-123.12 32.448-175.984zM358.912 211.28l2.976-16.56c6.656-37.088 2.928-80.928-9.472-111.712-1.248-3.12-4.256-5.008-7.408-5.008-1.008 0-2.032 0.192-3.008 0.576-4.096 1.648-6.096 6.304-4.432 10.4 9.344 23.184 13.28 55.824 10.784 85.648-16.064-17.952-36.304-36.656-79.552-57.2l-8.096-3.824-2.912 8.448c-5.792 16.8-11.632 33.776-14.16 57.44-8.656-13.648-16.56-25.808-29.84-43.888l-8.128-11.072-5.632 12.544c-13.776 30.8-24.272 54.848-32.592 76-7.696-24.72-13.44-53.312-13.44-111.056 0-4.416-3.6-8-8-8-4.432 0-8 3.584-8 8 0 75.344 10 104.368 20.56 135.104l8.32 24.16 7.664-21.6c8.24-23.216 19.088-48.8 34.432-83.392 10.112 14.288 16.896 25.040 25.088 38.016l24.288 38.048v-27.344c0-30.784 5.536-50.896 11.632-69.168 42.544 21.408 58.48 40.032 75.328 59.68l13.6 15.76z" />
<glyph unicode="&#xe61b;" d="M469.808 405.808c56.256-56.224 56.256-147.408 0-203.632l-175.472-175.488c-6.256-6.272-16.368-6.272-22.624 0-6.288 6.256-6.288 16.352 0 22.624l173.216 173.232c43.744 43.744 43.744 114.624-0.032 158.384-43.68 43.744-114.624 43.744-158.368 0l-231.152-228.432c-31.248-31.232-31.248-81.888 0-113.12 31.248-31.248 81.872-31.248 113.12 0l233.44 230.672c18.72 18.72 18.72 49.168 0 67.888-18.72 18.704-49.152 18.704-67.872 0l-175.504-175.504c-6.256-6.256-16.368-6.256-22.624 0-6.256 6.272-6.256 16.368 0 22.64l175.488 175.488c31.216 31.232 81.872 31.232 113.12 0 31.248-31.248 31.248-81.888 0-113.136l-233.44-230.688c-43.648-43.664-114.704-43.664-158.368 0s-43.664 114.736 0 158.4l233.44 230.672c56.224 56.256 147.408 56.256 203.632 0z" />
<glyph unicode="&#xe61c;" d="M502.4 300.8l-48 63.968c-1.872 2.512-4.096 4.688-6.4 6.768v76.464c0 17.664-14.336 32-32 32h-320c-17.68 0-32-14.336-32-32v-76.48c-2.304-2.064-4.528-4.224-6.4-6.72l-47.984-63.984c-6.208-8.256-9.616-18.48-9.616-28.816v-16c0-26.464 21.536-48 48-48v0-208c0-17.664 14.336-32 32-32h352c17.664 0 32 14.336 32 32v208c26.464 0 48 21.536 48 48v16c0 10.336-3.408 20.56-9.6 28.8zM416 448v-64h-320v64h320zM163.088 240h-67.024l64 112h35.024l-32-112zM211.744 352h36.256v-112h-68.256l32 112zM264 352h36.256l32-112h-68.256v112zM316.88 352h35.024l64-112h-67.024l-32 112zM32 256v16c0 3.472 1.12 6.832 3.2 9.6l48 64c3.024 4.032 7.76 6.4 12.8 6.4h45.632l-64-112h-29.632c-8.832 0-16 7.152-16 16zM320 0h-120v160h120v-160zM432 0h-96v160c0 8.848-7.184 16-16 16h-120c-8.832 0-16-7.152-16-16v-160h-104v208h352v-208zM480 256c0-8.848-7.152-16-16-16h-29.664l-64 112h45.664c5.024 0 9.776-2.368 12.784-6.4l48-64c2.096-2.768 3.216-6.128 3.216-9.6v-16z" />
<glyph unicode="&#xe61d;" d="M469.344 432h-69.344v32c0 8.848-7.152 16-16 16s-16-7.152-16-16v-32h-96v32c0 8.848-7.168 16-16 16s-16-7.152-16-16v-32h-96v32c0 8.848-7.168 16-16 16s-16-7.152-16-16v-32h-69.328c-23.568 0-42.672-19.088-42.672-42.656v-378.672c0-23.568 19.104-42.672 42.672-42.672h426.672c23.568 0 42.656 19.104 42.656 42.672v378.672c0 23.568-19.088 42.656-42.656 42.656zM480 10.672c0-5.888-4.784-10.672-10.656-10.672h-426.672c-5.888 0-10.672 4.784-10.672 10.672v378.672c0 5.872 4.784 10.656 10.672 10.656h69.328v-32c0-8.848 7.168-16 16-16s16 7.152 16 16v32h96v-32c0-8.848 7.168-16 16-16s16 7.152 16 16v32h96v-32c0-8.848 7.152-16 16-16s16 7.152 16 16v32h69.344c5.872 0 10.656-4.784 10.656-10.656v-378.672zM112 288h64v-48h-64zM112 208h64v-48h-64zM112 128h64v-48h-64zM224 128h64v-48h-64zM224 208h64v-48h-64zM224 288h64v-48h-64zM336 128h64v-48h-64zM336 208h64v-48h-64zM336 288h64v-48h-64z" />
<glyph unicode="&#xe61e;" d="M256 160c0 17.673 14.327 32 32 32s32-14.327 32-32c0-17.673-14.327-32-32-32s-32 14.327-32 32zM464.016 272c-0.016 0-0.016 0 0 0l-0.016 96v48c0 26.512-21.504 48-48 48h-328c-48.528 0-88-39.488-88-88v-320c0-48.512 39.472-88 88-88h288c48.512 0 88 39.488 88 88v24c0 0 0 0 0.016 0 63.968 48.016 63.968 143.984 0 192zM88 432h328c8.816 0 16-7.168 16-16v-98.944c-5.024 1.792-10.368 2.944-16 2.944h-0.016v80c0 8.848-7.168 16-16 16h-336c-8.832 0-16-7.152-16-16v-63.088c-9.872 10.096-15.984 23.856-15.984 39.088 0 30.928 25.056 56 56 56zM399.984 384h-336v16h336v-16zM399.984 368v-16h-336v16h336zM399.984 336v-16h-311.984c-8.64 0-16.704 2.112-24 5.6v10.4h335.984zM432 56c0-30.928-25.072-56-56-56h-288c-30.944 0-56 25.072-56 56v252.176c15.216-12.592 34.736-20.176 56-20.176h328c8.816 0 16-7.168 16-16v-32h-144c-44.192 0-80-35.808-80-80s35.824-80 80-80h144v-24zM452.432 112h-164.432c-26.464 0-48 21.536-48 48s21.536 48 48 48h144c9.872 0.128 19.664 4.912 25.632 12.864 1.664 2.24 2.96 4.752 4 7.376 0.144 0.352 0.4 0.624 0.528 0.992 11.504-15.088 17.84-33.584 17.84-53.232 0-24.608-9.936-47.44-27.568-64z" />
<glyph unicode="&#xe61f;" d="M397.312 296.88c-2.976 4.448-7.968 7.12-13.312 7.12h-16c-8.848 0-16-7.152-16-16v-96c0-8.848 7.152-16 16-16h64c8.848 0 16 7.152 16 16v24c0 3.152-0.944 6.256-2.688 8.88l-48 72zM432 192h-64v96h16l48-72v-24zM503.936 234.624l-64 96c-8.928 13.392-23.872 21.376-39.936 21.376h-64v32c0 26.464-21.536 48-48 48h-240c-26.464 0-48-21.536-48-48v-176c0-26.464 21.536-48 48-48v0-48c0-26.464 21.536-48 48-48h18.272c7.152-27.536 32-48 61.744-48 29.712 0 54.56 20.464 61.712 48h84.512c7.152-27.536 32-48 61.744-48 29.712 0 54.56 20.464 61.712 48h18.304c26.464 0 48 21.536 48 48v96c0 9.504-2.784 18.72-8.064 26.624zM48 192c-8.832 0-16 7.152-16 16v176c0 8.848 7.168 16 16 16h240c8.848 0 16-7.152 16-16v-176c0-8.848-7.152-16-16-16h-240zM176.016 48c-17.68 0-32 14.336-32 32s14.32 32 32 32c17.664 0 32-14.336 32-32s-14.352-32-32-32zM384 48c-17.68 0-32 14.336-32 32s14.32 32 32 32c17.664 0 32-14.336 32-32s-14.336-32-32-32zM480 112c0-8.848-7.152-16-16-16h-18.288c-7.152 27.536-32 48-61.712 48-29.744 0-54.592-20.464-61.744-48h-84.512c-7.152 27.536-32 48-61.712 48-29.744 0-54.592-20.464-61.744-48h-18.288c-8.832 0-16 7.152-16 16v48h208c26.464 0 48 21.536 48 48v112h64c5.344 0 10.336-2.672 13.312-7.12l64-96c1.744-2.624 2.688-5.728 2.688-8.88v-96z" />
<glyph unicode="&#xe620;" d="M199.292 391.839c27.292 0 53.981 0 81.927 0 0.087-26.601-4.17-55.74 32.094-59.837-1.364 9.492-3.414 18.348-3.75 27.264-0.594 15.717-0.364 31.476-0.079 47.212 0.286 15.819 12.483 28.522 27.122 28.822 14.625 0.3 27.817-13.169 28.296-29.043 0.175-5.719 0.027-11.446 0.027-17.901 18.192-2.687 35.918-4.935 53.505-7.99 21.481-3.727 27.974-14.012 27.873-30.974-0.59-95.971-0.262-191.952-0.3-287.928-0.005-19.099-4.041-24.56-23.012-27.813-69.020-11.842-138.612-17.57-208.535-13.224-45.055 2.797-89.939 8.718-134.792 14.146-15.454 1.871-20.694 9.363-20.712 25.26-0.102 97.128-0.102 194.256 0 291.384 0.019 16.257 6.511 23.652 22.79 26.504 10.169 1.783 20.445 2.972 32.2 4.649-0.912-25.938 3.267-48.875 33.342-52.022-1.576 10.026-3.953 19.911-4.493 29.895-0.765 14.165-0.479 28.407-0.097 42.599 0.507 18.79 12.109 31.019 28.49 30.72 15.588-0.281 26.877-12.897 27.587-30.808 0.133-3.359 0.318-6.714 0.516-10.916zM403.851 266.53c-101.856 0-202.526 0-303.267 0 0-65.997 0-131.119 0-196.753 101.487-15.625 202.324-15.828 303.267 0.050 0 66.283 0 131.078 0 196.702zM281.522 241.298c0-18.431 0-35.867 0-54.082-18.15 0-35.844 0-54.192 0 0 18.072 0 35.784 0 54.082 18.072 0 35.49 0 54.192 0zM364.072 186.995c-18.228 0-35.678 0-53.773 0 0 18.274 0 35.996 0 54.303 18.063 0 35.485 0 53.773 0 0-17.865 0-35.572 0-54.303zM281.163 104.022c-18.408 0-35.853 0-53.888 0 0 18.072 0 35.517 0 53.911 17.671 0 35.36 0 53.888 0 0-17.685 0-35.379 0-53.911zM364.293 103.953c-18.086 0-35.531 0-53.815 0 0 17.865 0 35.605 0 54.137 17.754 0 35.462 0 53.815 0 0-18.137 0-35.853 0-54.137zM142.059 102.262c0 18.348 0 35.803 0 53.893 17.957 0 35.397 0 53.773 0 0-17.57 0-35.291 0-53.893-17.45 0-35.157 0-53.773 0z" horiz-adv-x="504" />
<glyph unicode="&#xe621;" d="M522.867 363.436c-3.126 0.344-6.538 3.477-6.857 7.156-0.065 0.858-0.117 1.677-0.293 2.483-1.489 14.429-13.584 25.745-28.384 25.745-16.49 0-30.418-13.136-30.418-28.677 0-16.899 12.505-28.696 30.418-28.696 6.805 0 12.986 2.483 17.9 6.447 4.666-3.484 10.393-5.719 16.717-5.979 8.761-0.319 16.782 2.574 22.71 8.261 5.511 5.277 7.39 12.888 7.364 19.954 0.826 17.218-6.571 33.278-17.432 45.095-11.966 13.005-28.176 20.779-45.952 20.779-0.013 0-0.013 0-0.013 0-18.777 0-37.665-7.546-49.521-23.574-7.286-9.841-16.022-22.502-16.022-42.3 0-17.991 3.543-33.98 16.632-47.226 10.257-10.386 29.839-18.654 47.616-18.654 11.563 0 20.831 2.308 30.99 7.728 5.433 2.899 8.020 9.983 4.576 15.085-3.068 4.543-10.159 4.764-15.957 3.334-6.317-1.567-10.503-4.881-19.584-4.881-11.478 0-26.343 5.771-32.017 12.024-8.391 9.255-11.576 20.149-11.576 32.589 0 10.51 3.211 18.713 11.485 29.203 5.323 6.792 20.714 15.768 33.733 15.768 11.511 0 22.651-5.407 30.704-14.624 7.396-8.502 11.764-18.745 11.218-30.347-0.377-3.471-3.192-7.247-8.040-6.694zM487.587 361.259c-6.714-0.696-9.906 4.699-9.671 8.872 0.253 4.881 5.739 7.904 9.671 7.904 3.517 0 7.046-4.387 7.046-7.904s-1.423-8.293-7.046-8.872zM279.535 167.954c-2.964-14.111-6.753-27.331-11.238-39.673l46.726 12.109c12.882 3.348 22.423 14.202 24.094 27.396l2.73 21.721c-4.81-4.264-10.562-7.52-16.983-9.275l-45.329-12.278zM324.942 236.18l-42.098-50.034c-0.202-1.372-0.481-2.659-0.702-4.017l39.322 10.666c11.134 3.022 19.486 12.239 21.384 23.613l1.118 6.675 3.841 22.944c-4.4-2.060-8.924-4.114-13.707-6.116-2.983-1.261-6.031-2.516-9.158-3.731zM295.472 480v-118.215l25.998 10.309v81.908h302.492v-167.748h-224.334c-9.295-9.087-21.533-17.757-36.613-25.998h286.945v219.745h-354.488zM398.907 364.385c-0.013 0.026-0.039 0.046-0.058 0.072-1.287 1.397-2.697 2.645-4.179 3.803-0.156 0.123-0.318 0.26-0.468 0.383-1.437 1.086-2.957 2.028-4.524 2.873-0.644 0.338-1.3 0.611-1.963 0.91-0.839 0.383-1.677 0.734-2.529 1.060-1.001 0.364-2.015 0.683-3.036 0.955-0.37 0.111-0.735 0.163-1.099 0.254-1.469 0.358-2.957 0.559-4.465 0.728-0.839 0.091-1.703 0.136-2.561 0.156-0.435 0.019-0.89 0.019-1.339 0.019-4.238-0.045-8.527-0.819-12.654-2.457l-119.001-47.213c-3.822-1.508-7.357-3.685-10.425-6.415l-62.948-55.838-7.832 8.827 62.948 55.832c4.127 3.653 8.8 6.545 13.922 8.573l47.077 19.207v70.813h-36.287c-4.504 0-8.963-0.858-13.142-2.535l-94.42-47.206c-7.994-3.205-14.552-9.21-18.446-16.899l-121.471-171.713v-220.584c0 0 93.718 17.738 111.215 24.952 33.408 13.76 107.231 35.937 143.577 135.836 0.319 0.91 0.637 1.794 0.962 2.756 3.809 11.212 7.767 25.543 10.952 39.7 0.305 1.352 0.579 2.685 0.871 4.030 0.429 2.216 0.904 4.394 1.3 6.662 0.195 1.072 0.377 2.164 0.559 3.25 0.702 4.127 1.378 8.293 1.976 12.609l5.297 6.298 0.767 0.923 40.148 47.714c0.793 0.305 1.592 0.637 2.379 0.949 5.193 2.028 10.445 4.238 15.703 6.584 4.264 1.898 8.527 3.855 12.719 5.947 0.949 0.468 1.878 0.942 2.821 1.423 3.12 1.599 6.194 3.25 9.204 4.959 7.429 4.212 14.397 8.8 20.707 13.675 12.505 9.672 22.216 20.597 26.375 32.803 4.712 13.844 2.997 28.196-4.816 40.408-1.151 1.774-2.431 3.412-3.815 4.92z" horiz-adv-x="650" />
<glyph unicode="&#xe622;" d="M47.574 139.89c-12.75 21.697-20.611 49.775-14.703 64.157 6.83 16.632 12.787-34.556 22.837-59.013 24.342 14.479 56.908 26.55 95.274 35.278-5.75 17.706-17.463 47.331-13.132 49.781 3.876 2.178 17.651-21.036 26.477-46.925 9.523 1.904 19.35 3.627 29.474 5.132-9.238 32.051-24.578 53.748-35.448 67.359-20.593 25.773-51.959 18.883-81.553 14.351-20.211-3.111-40.682-9.080-52.281-20.15-30.808-29.425-33.064-84.538-4.027-134.259 6.66 8.613 15.826 16.736 27.083 24.287zM71.478 280.36c12.271 1.407 45.493 1.092 39.846 50.193-1.886 16.371-20.611 34.957-49.26 31.651-24.882-2.863-34.508-24.354-31.651-49.242 2.826-24.554 28.788-34.017 41.065-32.603zM250.077 329.486c2.899-24.554 28.885-33.925 41.162-32.476 12.271 1.45 45.493 1.226 39.694 50.315-1.941 16.365-20.721 34.896-49.369 31.505-24.858-2.948-34.429-24.469-31.487-49.344zM562.843 252.669c11.573-0.079 42.448-4.119 42.745 42.205 0.103 15.45-15.231 34.847-42.26 35.011-23.462 0.146-34.86-18.767-35.005-42.247-0.152-23.159 22.934-34.89 34.52-34.969zM350.337 194.026c0 0-2.681 44.941 6.666 55.762 21.23 24.596 54.591 71.624 45.99 140.524-1.346 10.755-5.945 22.825-16.772 22.37-10.809-0.631-14.193-11.046-13.557-21.861 2.748-46.991-12.453-81.529-27.296-97.269-11.683-12.386-25.919-13.569-59.396-13.569-20.696 0-37.716 7.339-50.576 21.818-17.966 20.217-31.063 50.036-26.762 86.37 1.274 10.76-1.165 23.135-11.925 24.409-10.724 1.189-18.852-9.032-19.161-19.859-2.274-80.37 36.394-112.494 45.493-134.101 8.541-20.271 4.858-66.195 4.858-66.195 22.716 2.166 46.524 3.336 71.15 3.336 17.56 0 34.671-0.606 51.286-1.735zM267.522 423.279c0.952-2.681 3.476-4.361 6.169-4.361 0.722 0 1.456 0.127 2.178 0.376 3.409 1.201 5.192 4.944 3.985 8.347l-14.442 40.798c-1.213 3.409-4.955 5.186-8.346 3.979-3.409-1.201-5.192-4.944-3.985-8.353l14.442-40.786zM242.3 408.279c1.286-1.365 3.020-2.057 4.756-2.057 1.619 0 3.233 0.601 4.494 1.79 2.632 2.481 2.748 6.618 0.267 9.244l-23.99 25.391c-2.487 2.632-6.63 2.748-9.244 0.261-2.632-2.475-2.748-6.618-0.267-9.238l23.984-25.391zM338.127 402.116c1.941 0 3.876 0.868 5.168 2.53l20.447 26.301c2.214 2.851 1.704 6.952-1.147 9.171-2.857 2.232-6.952 1.704-9.183-1.147l-20.435-26.301c-2.226-2.851-1.704-6.951 1.14-9.171 1.189-0.94 2.602-1.383 4.010-1.383zM305.129 418.615c0.388-0.060 0.771-0.097 1.14-0.097 3.124 0 5.884 2.238 6.442 5.416l8.498 48.398c0.631 3.555-1.753 6.952-5.308 7.576-3.597 0.606-6.952-1.765-7.576-5.32l-8.498-48.398c-0.625-3.555 1.747-6.952 5.301-7.576zM301.86 63.638l0.006-0.031-24.536-4.622 16.942-23.929 27.101 19.204-22.019 27.38 1.522-10.93 1.322-7.006zM266.976 69.413l21.048 3.967-4.707 24.954-1.334 7.084-2.135 11.331-32.645-6.163 4.962-26.301 1.358-7.194 1.862-9.869 4.519 0.849zM139.998 105.988l33.837-28.313-21.322-25.483-33.837 28.313 21.323 25.483zM363.452 142.709l8.173-43.365-32.653-6.154-8.173 43.365 32.653 6.154zM570.237 92.717c-0.358-0.2-0.679-0.401-1.043-0.606-15.376-8.649-34.369-14.139-56.46-16.335-0.892-0.109-1.813-0.151-2.748-0.151-13.83 0-30.498 12.252-32.112 28.642l-0.055 0.51-0.012 0.515c-0.17 13.344 11.779 23.153 30.462 24.997 7.067 0.692 13.393 1.711 19.235 3.087-0.128 0.085-0.261 0.139-0.388 0.224-9.032 4.701-31.25 13.939-47.713 20.623-48.604 16.232-112.076 26.089-181.571 26.089-152.814 0-276.705-47.531-276.705-106.156 0-58.631 123.886-106.15 276.705-106.15s276.699 47.519 276.699 106.15c0.006 6.339-1.523 12.531-4.294 18.561zM183.124 69.892l-29.091-34.787-52.456 43.88 36.861 44.097 52.456-43.885-7.77-9.305zM328.391 44.367l-37.013-26.222-27.18 38.402-2.050-0.376-4.519-0.861-11.931-2.245-4.101 21.776-1.358 7.206-4.95 26.301-2.25 11.925 56.49 10.658 4.361-23.111 45.044-56.005-10.542-7.449zM329.332 78.997l-2.25 11.925-10.427 55.283 56.496 10.658 2.238-11.925 8.188-43.358 2.238-11.931-56.484-10.651zM424.976 22.179l-50.163-1.953-0.473 12.12-1.135 28.624-0.467 12.132 62.282 2.414 0.473-12.12 1.122-28.624 0.473-12.125-12.113-0.467zM423.36 62.942l1.132-28.625-38.032-1.503-1.132 28.625 38.032 1.503zM606.54 197.696l-0.037 5.083c0 7.855-4.634 16.68-10.627 20.975-11.895 8.541-39.84 14.994-58.783 14.994-8.935 0-16.978-2.323-24.014-4.641-16.99-5.581-39.512-3.397-42.036 4.028-3.233 9.517-2.038 39.64 2.869 66.438 1.941 10.663 2.881 26.458-7.783 28.418-10.639 1.929-20.872-5.114-22.832-15.777-9.348-51.073-11.385-83.355-6.053-95.929 6.454-15.237 33.525-23.601 52.614-23.408 5.095 0.048-3.069-21.43-10.057-32.281 25.149-7.709 46.876-17.050 64.248-27.63 15.243 7.655 17.354 20.484 21.855 41.55 0.103 0.376 0.249 0.589 0.364 0.922 3.154 10.227 13.782 6.539 12.738-0.849-1.778-12.447-3.718-24.117-9.668-33.95-3.355-5.544-8.031-10.488-14.679-14.654-1.953-1.219-4.101-2.39-6.429-3.464-2.263-1.062-4.719-2.057-7.382-2.966-1.899-0.649-3.918-1.28-6.042-1.862-7.163-1.959-15.425-3.506-25.318-4.483-10.779-1.062-19.616-5.666-19.531-12.769 0.995-10.13 13.272-18.646 21.454-17.596 21.964 2.159 38.821 7.527 51.843 14.849 0.746 0.413 1.48 0.843 2.189 1.267 1.917 1.14 3.755 2.336 5.484 3.555 1.789 1.267 3.518 2.566 5.131 3.906 29.346 24.457 30.625 61.264 30.505 82.681 0 1.195-0.012 2.433-0.024 3.591z" horiz-adv-x="607" />
<glyph unicode="&#xe623;" d="M613.754-12.462c-5.031 0-9.927 2.44-12.924 6.824l-212.403 311.43c-2.546 3.721-3.351 8.368-2.214 12.736s4.098 8.029 8.142 10.055l229.334 114.686c4.15 2.071 8.993 2.192 13.256 0.347 4.248-1.868 7.457-5.513 8.752-9.965l106.861-367.466c2.139-7.373-1.386-15.207-8.322-18.498l-123.792-58.635c-2.154-1.017-4.436-1.514-6.688-1.514zM424.346 308.623l194.779-285.596 99.668 47.224-97.89 336.661-196.556-98.289zM177.214-32c-1.853 0-3.72 0.332-5.543 1.017l-161.578 61.226c-7.63 2.899-11.749 11.162-9.467 18.995l105.55 362.262c1.213 4.158 4.097 7.637 7.976 9.581 3.871 1.95 8.376 2.207 12.45 0.715l233.25-86.005c4.226-1.559 7.57-4.865 9.188-9.060 1.612-4.202 1.341-8.895-0.753-12.88l-177.23-337.482c-2.764-5.279-8.179-8.368-13.844-8.368zM34.691 54.366l135.119-51.209 162.498 309.457-200.796 74.037-96.82-332.285zM341.745 284.732c-1.19 4.037-3.962 7.419-7.683 9.392-18.408 9.738-37.825 14.483-59.35 14.483-26.904 0-52.082-7.351-76.424-14.446-20.561-6.003-39.986-11.666-57.272-11.666-16.736 0-29.51 5.227-41.432 16.962-4.007 3.939-9.806 5.43-15.222 3.909-5.408-1.529-9.573-5.845-10.928-11.298l-57.331-231.721c-1.83-7.381 1.928-15.026 8.902-18.076l136.821-59.93c2.041-0.897 4.173-1.318 6.274-1.318 5.506 0 10.808 2.923 13.655 7.998l158.641 283.646c2.056 3.683 2.546 8.029 1.348 12.066zM107.832 240.702c0-2.237-2.237-6.703-6.711-6.703-4.526 0-8.195 2.177-8.195 6.703 0 5.212 3.728 8.195 6.703 8.195 8.948-0.007 8.202-5.965 8.202-8.195zM131.798 194.63c0-2.245-2.237-6.711-6.711-6.711-4.526 0-8.195 2.176-8.195 6.711 0 5.212 3.728 8.187 6.703 8.187 8.948 0 8.202-5.95 8.202-8.187zM166.316 240.16c0-3.856-3.856-11.561-11.569-11.561-7.81 0-14.13 3.744-14.13 11.561 0 8.986 6.424 14.137 11.569 14.137 15.41 0 14.13-10.281 14.13-14.137zM215.777 240.702c0-2.237-2.237-6.703-6.711-6.703-4.526 0-8.195 2.177-8.195 6.703 0 5.212 3.728 8.195 6.703 8.195 8.947-0.007 8.202-5.965 8.202-8.195zM230.69 202.079c0-2.229-2.237-6.711-6.711-6.711-4.526 0-8.195 2.176-8.195 6.711 0 5.219 3.728 8.202 6.703 8.202 8.947-0.007 8.202-5.973 8.202-8.202zM280 245.56c0-3.856-3.856-11.561-11.568-11.561-7.81 0-14.13 3.751-14.13 11.561 0 8.993 6.425 14.137 11.568 14.137 15.418 0 14.13-10.281 14.13-14.137zM742.554 94.36l-67.13 214c-1.679 5.363-6.108 9.407-11.591 10.597-5.49 1.197-11.2-0.647-14.951-4.828-11.268-12.533-24.268-18.121-42.155-18.121-14.883 0-31.551 3.774-49.197 7.765-20.501 4.632-41.696 9.429-63.93 9.429-23.959 0-44.935-5.702-64.11-17.413-3.6-2.192-6.154-5.746-7.095-9.851-0.934-4.105-0.188-8.413 2.087-11.961l165.149-256.862c2.975-4.61 7.999-7.178 13.158-7.178 2.41 0 4.865 0.558 7.133 1.725l124.853 64.095c6.779 3.479 10.063 11.343 7.78 18.603zM491.762 254.906c-0.128-2.23-2.584-6.583-7.050-6.357-4.534 0.241-8.067 2.599-7.841 7.118 0.271 5.204 4.15 7.999 7.11 7.84 8.947-0.459 7.894-6.372 7.781-8.601zM513.333 207.668c-0.128-2.237-2.584-6.575-7.057-6.349-4.526 0.233-8.067 2.591-7.841 7.11 0.279 5.204 4.15 7.998 7.118 7.848 8.932-0.467 7.878-6.38 7.781-8.609zM550.133 251.367c-0.196-3.849-4.443-11.358-12.149-10.958-7.788 0.406-13.918 4.474-13.519 12.285 0.467 8.985 7.148 13.783 12.284 13.519 15.395-0.798 13.58-10.996 13.384-14.845zM584.682 250.124c0.256 5.204 4.143 7.999 7.117 7.84 8.925-0.467 7.878-6.372 7.75-8.617-0.113-2.23-2.583-6.567-7.042-6.341-4.504 0.233-8.059 2.591-7.826 7.118zM612.473 210.010c-0.12-2.229-2.583-6.575-7.049-6.349-4.527 0.233-8.067 2.599-7.833 7.118 0.264 5.204 4.135 7.991 7.11 7.833 8.94-0.452 7.878-6.372 7.773-8.601zM663.953 250.907c-0.196-3.849-4.443-11.351-12.149-10.951-7.795 0.406-13.926 4.466-13.519 12.276 0.467 8.986 7.148 13.776 12.284 13.519 15.388-0.798 13.58-10.996 13.384-14.845zM444.116 142.706c-3.058 0-5.957 1.8-7.208 4.798l-26.625 63.402c-1.672 3.977 0.196 8.548 4.188 10.228 3.939 1.68 8.571-0.196 10.228-4.188l26.625-63.402c1.672-3.977-0.196-8.563-4.188-10.228-0.979-0.422-2.003-0.61-3.020-0.61zM327.766 136.719c-0.844 0-1.709 0.143-2.553 0.43-4.082 1.416-6.244 5.867-4.828 9.95l22.761 65.737c1.409 4.089 5.844 6.228 9.942 4.836 4.082-1.416 6.244-5.867 4.828-9.942l-22.761-65.745c-1.122-3.246-4.15-5.264-7.389-5.264zM317.96 381.711c-2.342 0-4.662 1.047-6.199 3.043l-45.936 59.621c-2.636 3.42-2.003 8.33 1.416 10.966 3.412 2.644 8.322 2.011 10.966-1.416l45.936-59.613c2.644-3.42 2.003-8.33-1.416-10.966-1.423-1.1-3.103-1.635-4.767-1.635zM368.762 394.417c-3.427 0-6.567 2.274-7.531 5.739l-14.341 51.796c-1.152 4.165 1.288 8.466 5.453 9.618 4.15 1.145 8.473-1.28 9.618-5.453l14.341-51.796c1.145-4.165-1.296-8.466-5.461-9.618-0.678-0.196-1.386-0.286-2.079-0.286zM389.617 123.048c-4.029 0-7.457 3.096-7.788 7.193l-5.86 72.794c-0.346 4.293 2.862 8.067 7.17 8.413 4.391 0.339 8.074-2.862 8.421-7.163l5.86-72.794c0.346-4.293-2.862-8.067-7.17-8.421-0.211-0.015-0.43-0.022-0.632-0.022zM413.733 399.305c-0.467 0-0.942 0.037-1.416 0.128-4.24 0.784-7.057 4.865-6.274 9.106l11.945 65.052c0.784 4.24 4.798 7.080 9.106 6.274 4.24-0.784 7.057-4.858 6.274-9.099l-11.953-65.052c-0.693-3.773-3.977-6.409-7.683-6.409zM453.795 375.851c-1.8 0-3.608 0.618-5.091 1.875-3.284 2.81-3.661 7.743-0.851 11.026l38.065 44.468c2.817 3.269 7.757 3.645 11.026 0.851 3.284-2.81 3.661-7.743 0.851-11.026l-38.065-44.468c-1.544-1.8-3.736-2.726-5.935-2.726z" horiz-adv-x="753" />
<glyph unicode="&#xe624;" d="M331.371 36.635c-45.57 0-86.755 26.833-104.867 40.566-56.638-13.785-98.373-5.414-123.954 23.884-18.425 21.106-23.162 48.147-24.010 66.461-33.789 12.199-78.54 47.536-78.54 98.998 0 69.663 43.962 111.249 117.609 111.249 6.047 0 11.662-0.29 16.653-0.7 10.262 30.125 31.242 54.649 62.618 73.096 33.648 19.788 66.103 29.812 96.481 29.812 48.974 0 80.64-25.47 96.906-43.478 18.022 8.364 35.487 12.579 52.094 12.579 59.087 0 88.855-50.449 100.323-76.685 68.509-6.077 98.141-51.782 102.818-94.716 5.146-47.172-16.511-92.571-50.158-110.594-1.117-24.026-8.758-43.753-22.812-58.82-18.902-20.257-47.968-30.527-86.404-30.527 0 0 0 0-0.007 0-24.495 0-47.909 4.238-62.789 7.656-30.177-39.903-66.043-48.781-91.96-48.781zM231.718 123.904c5.429 0 10.746-1.988 14.887-5.712 0.38-0.335 42.056-37.006 84.766-37.006 25.537 0 46.293 13.547 63.437 41.408 5.34 8.661 15.87 12.594 25.567 9.599 0.298-0.082 32.515-9.868 65.745-9.868v0c17.584 0 41.207 2.83 53.837 16.37 8.415 9.019 12.020 23.161 10.71 42.048-0.76 11 6.643 20.897 17.397 23.288 20.413 4.528 36.522 37.996 33.163 68.851-2.271 20.764-14.917 55.602-74.161 55.677-9.868 0.015-18.559 6.524-21.337 15.989-0.156 0.529-18.648 60.011-63.363 60.011-13.785 0-29.536-5.258-46.8-15.617-5.124-3.076-11.268-3.954-17.062-2.458-5.786 1.497-10.724 5.266-13.711 10.434-0.856 1.438-23.556 38.54-71.428 38.54-22.327 0-47.186-7.962-73.9-23.675-27.227-16.012-42.018-36.068-46.524-63.109-0.998-6.025-4.446-11.38-9.511-14.798s-11.327-4.61-17.286-3.285c-0.067 0.015-12.407 2.644-28.523 2.644-31.361 0-73.059-6.911-73.059-66.692 0-35.494 45.727-59.118 56.689-59.132 6.419-0.007 12.556-2.793 16.772-7.634 4.222-4.841 6.159-11.283 5.302-17.643-0.030-0.224-3.91-32.791 12.914-51.886 8.892-10.077 22.491-14.976 41.578-14.976 13.636 0 29.708 2.622 47.804 7.775 1.996 0.566 4.052 0.856 6.092 0.856zM667.65-32c-42.495 0-77.081 33.26-77.081 74.124 0 40.879 34.586 74.131 77.081 74.131 42.502 0 77.088-33.252 77.088-74.131 0-40.864-34.586-74.124-77.088-74.124zM667.65 71.705c-17.933 0-32.523-13.264-32.523-29.581 0-16.303 14.59-29.574 32.523-29.574 17.941 0 32.53 13.264 32.53 29.574 0.008 16.317-14.582 29.581-32.53 29.581zM234.466 170.517l-78.95 78.98 78.071 84.96 21.873-20.101-58.82-63.995 58.834-58.842zM410.321 170.517l-21.002 21.002 58.842 58.842-58.827 63.995 21.873 20.101 78.079-84.959zM338.892 333.188l26.932-12.519-69.204-148.883-26.932 12.519 69.204 148.883z" horiz-adv-x="745" />
<glyph unicode="&#xe625;" d="M572.871 340.672l-15.402 14.192c-9.853 9.046-28.183 25.886-38.124 39.535-5.567 7.661-22.459 24.168-31.803 32.785l-12.904 11.896 23.783 25.798 12.904-11.887c2.744-2.524 27.009-25.019 36.388-37.948 7.863-10.8 25.176-26.684 33.477-34.319l15.472-14.262-23.791-25.79zM503.594 337.858l-25.79 23.8 11.896 12.886c2.464 2.665 5.899 5.978 9.783 9.704 7.758 7.425 18.373 17.594 23.318 25.711 7.951 13.070 29.682 40.692 32.127 43.804l10.861 13.781 27.552-21.731-10.861-13.781c-6.294-7.986-23.914-30.786-29.717-40.333-7.337-12.027-19.346-23.537-29.007-32.785-3.279-3.139-6.197-5.917-8.266-8.161l-11.896-12.895zM170.167 350.674l-14.245 15.209c-9.187 9.756-26.263 27.92-35.196 42.305-4.971 8.021-20.618 25.737-29.314 35.021l-11.992 12.807 25.615 23.984 11.992-12.798c2.551-2.718 25.098-26.93 33.513-40.517 7.074-11.387 23.186-28.516 30.927-36.748l14.315-15.279-25.614-23.984zM100.897 352.936l-23.992 25.614 12.807 11.992c2.656 2.49 6.364 5.567 10.528 9.011 8.257 6.82 19.566 16.165 25.071 23.879 8.915 12.448 32.593 38.413 35.257 41.332l11.851 12.948 25.877-23.695-11.843-12.947c-6.855-7.495-26.106-28.963-32.601-38.054-8.188-11.431-20.986-22.012-31.269-30.506-3.515-2.911-6.653-5.479-8.897-7.574l-12.79-12.001zM338.3 325.34v0l-6.408 0.087c-22.827 0-54.674 20.81-54.674 54.683 0 37.642 21.976 62.94 54.674 62.94 38.877 0 62.94-28.393 62.94-54.691 0-24.282-7.004-41.972-20.837-52.57-12.211-9.362-26.211-10.449-35.695-10.449zM331.884 407.961c-17.041 0-19.584-17.454-19.584-27.85 0-13.517 15.569-19.592 19.584-19.592l6.408-0.088c4.743 0 10.642 0.368 14.341 3.2 4.576 3.507 7.101 12.29 7.101 24.729 0 6.618-8.406 19.601-27.85 19.601zM746.835 339.997v0l-6.408 0.088c-22.827 0-54.674 20.802-54.674 54.683 0 37.65 21.976 62.94 54.674 62.94 38.878 0 62.941-28.394 62.941-54.692 0-24.282-7.004-41.972-20.828-52.57-12.211-9.371-26.22-10.449-35.704-10.449zM740.427 422.618c-17.041 0-19.583-17.454-19.583-27.85 0-13.517 15.568-19.592 19.583-19.592l6.408-0.088c4.742 0 10.642 0.368 14.341 3.2 4.576 3.506 7.101 12.299 7.101 24.729 0 6.618-8.407 19.601-27.85 19.601zM229.364 179.253c3.734-16.121 16.752-28.394 25.957-26.158 14.99 3.611 10.87 35.617 8.46 48.52-10.686 57.137-37.309 107.288-78.334 128.379-17.445 8.959-61.722 7.302-78.921 0-23.739-10.089-41.885-59.311-49.257-54.008-5.751 4.147-12.386 24.080-21.363 43.91-5.409 11.948-15.349 27.701-26.982 21.652-11.624-6.058-10.528-22.476-4.471-34.118 0 0 19.951-39.789 29.971-56.050 14.745-23.923 36.406-19.829 42.428-9.222 3.918 6.925 16.050 31.619 18.4 26.701 5.934-12.491-7.32-210.666-5.338-276.736 0.385-13.096 8.231-24.124 18.987-24.124 13.114 0 19.619 11.422 20.171 24.527 4.795 115.344-0.605 142.817 16.033 142.817 15.823 0 10.388-27.306 12.071-144.806 0.184-13.035 6.654-22.538 19.671-22.538 0.070 0 0.149 0 0.202 0 13.114 0.114 21.302 10.615 21.257 23.73-0.202 57.181-12.86 252.805-6.329 261.702 15.858 21.626 32.215-51.851 37.388-74.178zM582.138 323.806c-22.818 10.58-67.981 6.574-87.337-3.656-29.839-15.787-55.489-128.248-55.489-128.248s-38.887 86.933-60.995 108.988c-19.882 19.82-61.521 7.407-74.152 13.789-22.757 11.483-46.25 53.858-66.894 72.916-8.906 8.222-19.487 15.875-28.569 7.863-9.073-8.012-5.944-20.582 1.692-29.988 18.715-23.029 50.51-64.448 65.798-89.782 7.574-12.553 7.574-156.202-0.911-174.445-2.954-6.346-18.365 12.159-31.619 19.715-10.844 6.18-21.679 11.729-27.78 1.28-6.119-10.458 2.822-24.676 12.606-31.803 16.568-12.062 53.604-32.514 66.289-29.296 11.036 2.805 13 11.87 14.675 19.435 2.937 13.333 1.28 53.175 11.151 52.079 13.631-1.517 9.082-93.254 11.519-124.276 1.096-13.938 9.502-21.565 18.26-21.565 0.123 0 0.219 0 0.325 0 12.123 0.184 17.716 9.108 18.33 21.205 2.919 57.024 0.631 215.111 0.132 228.172-0.859 22.178 50.642-81.708 50.642-81.708 4.024-7.18 11.483-11.221 19.163-11.221 0.868 0 1.718 0.219 2.586 0.325 1.166-0.184 2.349-0.333 3.498-0.333 8.669 0 16.892 5.18 20.329 13.719 0 0 26.044 108.594 33.407 88.625 6.031-16.34-2.323-178.004-3.892-237.192-0.325-12.115 8.223-21.582 18.812-22.274 9.888-0.649 20.328 8.328 20.644 20.416 2.656 102.151-1.885 130.211 12.675 131.587 7.802 0.736 12.886-0.719 20.96-127.923 0.745-11.729 7.302-24.493 18.917-24.493 14.525 0 17.716 14.201 17.129 26.298 0 0-20.451 220.835-18.917 233.318 3.244 26.597 46.399-87.845 46.399-87.845 5.707-10.695 19.023-14.718 29.682-8.985 10.686 5.716 14.701 19.005 8.985 29.682 0.018-0.017-51.194 128.528-88.047 145.622zM867.525 361.947c7.162 9.757 13.614 28.551 4.856 36.923s-23.3 1.981-31.672-6.785c-29.726-31.111-55.848-64.527-71.479-72.206-8.029-3.945-27.525-5.163-47.135 3.024-26.851 11.212-63.177 54.674-80.613 75.95-7.67 9.362-18.689 12.097-27.736 4.041s-3.691-19.925 1.972-29.559c16.62-28.245 77.948-82.173 83.716-98.987 9.494-27.666-4.76-192.143-4.207-259.589 0.096-12.115 4.716-25.36 16.822-25.755 0.254-0.009 0.5-0.009 0.745-0.009 11.782 0 21.626 9.353 21.898 21.205 0.745 32.031 1.613 127.371 14.271 127.371 8.766 0 23.046-69.12 41.814-73.731 22.336-5.488 61.293 35.731 77.755 52.438 8.503 8.626 9.862 23.668 0.228 31.023-9.047 6.908-18.742 1.508-26.587-7.705-7.381-8.652-30.077-33.846-36.923-25.957-12.237 14.104-12.597 149.68-9.134 163.759 3.962 16.261 29.226 27.148 71.409 84.549z" horiz-adv-x="877" />
<glyph unicode="&#xe626;" d="M81.509-28.024c-3.19 0-6.395 0.966-9.178 2.968-7.045 5.075-8.666 14.887-3.602 21.949 5.714 7.974 143.304 195.063 440.615 195.063 8.693 0 15.743-7.055 15.743-15.748s-7.051-15.738-15.743-15.738c-146.525 0-251.455-49.373-313.683-90.772-67.641-45.017-101.017-90.704-101.345-91.157-3.090-4.293-7.916-6.565-12.806-6.565zM164.756-32c-3.406 0-6.828 1.104-9.707 3.364-6.828 5.365-8.038 15.22-2.694 22.065 4.341 5.572 109.256 136.248 356.973 136.248 8.698 0 15.748-7.055 15.748-15.748s-7.051-15.738-15.748-15.738c-121.033 0-204.892-33.757-253.917-62.075-53.112-30.678-78.013-61.784-78.261-62.101-3.111-3.95-7.732-6.015-12.395-6.015zM262.276-31.097c-3.771 0-7.568 1.346-10.578 4.077-6.438 5.846-6.923 15.812-1.077 22.25 2.873 3.174 72.452 77.474 262.177 72.356 8.692-0.243 15.548-7.478 15.31-16.171-0.232-8.704-7.694-15.701-16.171-15.315-175.196 4.732-237.392-61.372-237.994-62.032-3.111-3.428-7.377-5.165-11.666-5.165zM248.202 147.822c-2.339 0-4.726 0.534-6.96 1.637-60.622 29.944-138.588 45.777-225.488 45.777-8.698-0.010-15.748 7.045-15.748 15.738s7.051 15.749 15.748 15.749c91.707 0 174.515-16.953 239.436-49.035 7.805-3.85 10.995-13.303 7.146-21.093-2.741-5.55-8.323-8.772-14.132-8.772zM177.964 107.132c-2.202 0-4.431 0.464-6.565 1.437-46.511 21.351-98.414 29.558-154.214 24.447-8.693-0.813-16.329 5.582-17.122 14.233-0.792 8.666 5.582 16.329 14.243 17.122 61.383 5.63 118.656-3.507 170.232-27.176 7.9-3.634 11.375-12.976 7.748-20.877-2.651-5.777-8.355-9.184-14.322-9.184zM110.825 59.448c-1.859 0-3.745 0.327-5.582 1.024-19.514 7.399-59.735 15.22-84.403 10.663-8.566-1.595-16.773 4.072-18.352 12.616-1.585 8.55 4.072 16.773 12.617 18.357 33.895 6.274 80.126-4.14 101.308-12.178 8.138-3.084 12.226-12.183 9.142-20.311-2.392-6.29-8.376-10.171-14.729-10.171zM58.425 11.221c-1.558 0-3.148 0.243-4.716 0.729-12.78 4.014-24.303 5.223-32.442 3.496-8.471-1.817-16.873 3.58-18.701 12.089-1.827 8.498 3.591 16.873 12.088 18.7 13.762 2.968 30.066 1.537 48.475-4.236 8.297-2.593 12.917-11.433 10.314-19.736-2.107-6.723-8.318-11.043-15.020-11.043zM341.303 480h-38.933l-87.503-66.695c13.203-3.708 39.101-6.464 68.2-8.502l58.235 75.198zM471.082 409.914h-29.078l-18.812-21.056-2.387 0.031c-4.858 0.068-83.632 1.214-145.447 5.957-29.717 2.281-55.531 5.382-67.303 9.601-1.146 0.412-2.25 0.697-3.396 1.077-14.576 4.88-28.602 7.457-41.7 7.457-46.796 0-72.679-31.929-72.679-54 0-5.117 1.447-9.353 4.209-12.241 3.005-3.158 7.531-4.759 13.441-4.759h66.733l128.896-83.241 55.257 0.053-82.581 83.188h173.215l21.632 67.931zM126.213 307.381c-7.124 0-14.169 3.322-20.797 9.971l7.436 7.415c9.374-9.395 17.998-9.157 28.006 0.766l7.383-7.452c-7.183-7.13-14.65-10.7-22.028-10.7zM126.367 285.723c-2.434 0-4.695 0.211-6.744 0.538-14.238 2.286-24.599 10.868-29.511 15.774l7.425 7.425c3.227-3.227 12.010-10.948 23.749-12.839 11.898-1.891 23.575 2.731 34.644 13.8l7.425-7.426c-13.657-13.646-26.839-17.274-36.989-17.274zM127.159 263.289c-27.398 0-47.218 17.692-52.669 23.126l7.425 7.426c9.707-9.707 26.686-20.053 45.249-20.053 0.095 0 0.163 0 0.254 0 15.537 0.084 30.329 7.177 43.971 21.093l7.494-7.351c-15.669-15.991-32.965-24.145-51.406-24.235-0.095-0.005-0.211-0.005-0.317-0.005z" horiz-adv-x="528" />
<glyph unicode="&#xe627;" d="M562.642 366.467c1.914 1.576 2.575 4.219 1.632 6.511-0.943 2.287-3.253 3.704-5.749 3.473l-165.659-15.399 7.121 112.939c0.147 2.355-1.186 4.563-3.349 5.517-2.151 0.96-4.681 0.463-6.336-1.225l-111.517-114.577-116.147 110.963c-1.779 1.7-4.461 2.050-6.619 0.864-2.157-1.18-3.298-3.631-2.818-6.048l24.604-123.765-163.712 26.908c-2.316 0.418-4.569-0.678-5.76-2.666s-1.056-4.495 0.35-6.331l90.222-118.191-97.303-99.873c-1.452-1.491-1.965-3.648-1.349-5.625 0.616-1.982 2.27-3.456 4.309-3.863l132.077-25.937 4.546-124.465c0.079-2.197 1.423-4.145 3.445-4.998 2.005-0.858 4.354-0.463 5.986 1.017l93.249 84.377c71.186-96.659 75.681-97.478 78.385-97.975 0.339-0.062 0.74-0.101 1.079-0.101 4.139 0 8.82 0 67.549 113.408l85.834-96.451c1.683-1.897 4.421-2.423 6.697-1.315 2.27 1.107 3.535 3.597 3.077 6.087l-27.704 151.921 92.644-17.313c2.242-0.389 4.467 0.531 5.721 2.4 1.26 1.863 1.293 4.303 0.073 6.2-8.753 13.666-80.537 125.707-94.231 146.132 9.024 10.927 56.486 51.873 99.652 87.398zM378.116 209.888c30.234-31.793-15.637-50.038-15.637-50.038-5.731-44.82-27.072-8.335-35.356-61.49h-49.072c2.609 69.305-31.792 90.679-31.792 90.679-32.317-20.335-51.071 15.642-51.071 15.642l0.525 0.378c0.519 0.373-34.921-18.104-46.39 11.717-12.401 32.255 26.581 43.985 26.581 43.985-9.38 41.364 40.653 33.548 40.653 33.548 20.538 36.999 56.159 8.34 56.159 8.34 37.287 27.619 56.38-8.86 56.38-8.86 47.446 10.944 43.865-35.949 43.865-35.949 37.468-15.134 5.156-47.954 5.156-47.954zM356.872 216.862c5.923 4.992 8.832 12.502 8.646 22.311-0.068 3.112-2.4 5.455-5.76 5.534-3.117-0.062-5.596-2.637-5.534-5.76 0.118-6.218-1.428-10.73-4.596-13.429-5.81-4.935-15.727-3.247-16.015-3.202-0.283 0.057-0.548-0.022-0.825-0.012-3.163 6.607-8.916 13.48-18.415 20.928-1.479 1.157-3.055 2.112-4.67 2.97 0.396 6.432 2.31 11.52 5.906 14.993 6.85 6.612 17.567 6.104 17.85 6.098 3.038-0.192 5.783 2.152 5.997 5.258 0.209 3.111-2.146 5.805-5.257 6.014-0.638 0.051-15.789 0.943-26.337-9.154-5.082-4.862-8.154-11.311-9.21-19.2-3.699 0.875-7.431 1.457-10.972 1.988-16.168 2.44-26.846 4.043-25.869 27.269 0.13 3.117-2.287 5.748-5.404 5.878-3.083 0.147-5.749-2.287-5.879-5.404-0.469-11.068 1.507-18.748 4.901-24.237-28.822-7.409-40.997 18.347-41.534 19.544-1.282 2.84-4.596 4.123-7.448 2.84-2.846-1.27-4.128-4.602-2.857-7.454 0.090-0.197 4.337-9.357 13.389-17.105-5.026-7.042-17.873-20.572-39.483-14.258-3.004 0.869-6.132-0.841-7.002-3.84s0.841-6.132 3.84-7.002c4.901-1.429 9.526-2.055 13.852-2.055 18.375 0 31.47 11.311 38.213 20.865 5.257-2.614 11.475-4.359 18.726-4.359 5.867 0 12.446 1.237 19.685 3.976 1.666-0.921 3.411-1.7 5.207-2.338-3.010-4.23-6.421-10.080-8.448-17.003-14.145-10.661-23.305-1.615-25.061 0.412-2.011 2.355-5.546 2.683-7.929 0.672-2.394-1.999-2.705-5.563-0.706-7.951 3.665-4.382 11.136-9.572 20.708-9.572 3.495 0 7.274 0.728 11.243 2.394 0.231-4.8 1.339-9.842 3.733-15.026 0.954-2.061 2.998-3.275 5.133-3.275 0.791 0 1.598 0.164 2.366 0.519 2.829 1.31 4.066 4.664 2.755 7.499-7.917 17.133 3.529 32.972 8.262 38.467 1.327-0.214 2.643-0.418 3.93-0.61 8.2-1.237 15.942-2.4 21.408-6.691 14.688-11.52 18.55-19.917 16.822-29.821-5.489 2.112-10.95 2.502-16.32 1.123-12.649-3.281-19.646-15.405-19.934-15.913-1.536-2.711-0.587-6.161 2.129-7.697 0.881-0.497 1.836-0.734 2.779-0.734 1.971 0 3.88 1.034 4.918 2.863 0.051 0.084 5.003 8.493 12.943 10.548 3.202 0.83 6.517 0.519 10.017-0.954-1.564-3.625-3.512-7.55-5.698-11.932-9.295-18.68-22.012-44.267-19.448-83.835 0.192-2.988 2.683-5.286 5.63-5.286 0.118 0 0.248 0.005 0.367 0.012 3.117 0.204 5.472 2.892 5.274 5.997-2.327 35.768 8.606 58.587 17.697 76.901 0.745-0.333 1.558-0.536 2.467-0.463 1.954-0.158 5.574-3.529 5.291-15.179-0.074-3.123 2.394-5.709 5.512-5.783 0.051 0 0.096 0 0.135 0 3.055 0 5.568 2.44 5.647 5.512 0.248 10.25-1.993 17.783-6.652 22.39-2.592 2.558-5.297 3.625-7.284 4.066 3.902 8.482 6.635 16.483 6.132 24.615 0.604-0.028 1.226-0.057 1.92-0.057 5.337-0.005 13.079 1.045 19.115 6.132z" horiz-adv-x="565" />
<glyph unicode="&#xe628;" d="M612.728 286.355l-50.936 193.652h-561.793v-448.252h66.463c0 50.957 41.46 92.417 92.417 92.417 50.95 0 92.41-41.453 92.41-92.417h222.172c0 50.957 41.46 92.417 92.424 92.417 50.95 0 92.403-41.453 92.403-92.417h56.309v209.673l-101.871 44.926zM367.096 282.396h-306.872v154.408h306.872v-154.408zM431.094 282.396v154.408h97.591l37.18-154.408h-134.77zM213.661 404.111c0 10.633-10.633 23.925-29.233 23.925-16.149 0-23.91-13.070-23.91-29.233 0-15.942 15.935-23.91 23.91-23.91s29.233-2.659 29.233 29.219zM264.404 382.116v-7.16c0-13.206 15.606-23.546 35.522-23.546 19.923 0 35.529 10.34 35.529 23.546v7.16h-71.051zM283.333 389.505c-1.151 0-2.294 0.558-2.98 1.601-1.094 1.644-0.651 3.873 1 4.966 4.023 2.679 3.866 3.030 1.165 9.025-0.507 1.129-1.065 2.358-1.63 3.716-3.745 9.061 2.215 15.821 5.881 18.129 1.651 1.043 3.88 0.543 4.938-1.129 1.043-1.665 0.55-3.873-1.108-4.923-0.572-0.379-5.402-3.745-3.094-9.339 0.529-1.279 1.050-2.437 1.529-3.502 2.765-6.117 5.366-11.898-3.723-17.943-0.601-0.408-1.293-0.601-1.979-0.601zM299.404 393.528c-1.151 0-2.294 0.564-2.987 1.601-1.086 1.643-0.643 3.873 1.007 4.966 4.031 2.679 3.873 3.037 1.172 9.032-0.507 1.122-1.058 2.351-1.63 3.709-3.745 9.061 2.215 15.821 5.888 18.129 1.651 1.036 3.873 0.55 4.93-1.129 1.043-1.665 0.55-3.873-1.108-4.923-0.572-0.379-5.402-3.745-3.094-9.34 0.529-1.279 1.050-2.436 1.529-3.501 2.765-6.117 5.366-11.905-3.73-17.943-0.601-0.408-1.286-0.601-1.979-0.601zM315.353 389.505c-1.151 0-2.294 0.558-2.98 1.601-1.094 1.644-0.651 3.873 1 4.966 4.023 2.679 3.866 3.030 1.165 9.025-0.507 1.129-1.058 2.358-1.63 3.716-3.745 9.061 2.215 15.821 5.888 18.129 1.651 1.043 3.873 0.543 4.93-1.129 1.043-1.665 0.55-3.873-1.108-4.923-0.572-0.379-5.402-3.745-3.094-9.339 0.529-1.279 1.050-2.437 1.529-3.502 2.765-6.117 5.366-11.898-3.723-17.943-0.608-0.408-1.3-0.601-1.979-0.601zM565.872 95.503c-35.164 0-63.762-28.598-63.762-63.755 0-35.151 28.598-63.748 63.762-63.748 35.15 0 63.748 28.598 63.748 63.748 0 35.157-28.597 63.755-63.748 63.755zM158.874 95.503c-35.157 0-63.763-28.598-63.763-63.755 0-35.151 28.605-63.748 63.763-63.748s63.748 28.598 63.748 63.748c0 35.157-28.59 63.755-63.748 63.755zM106.237 314.159c11.097-18.007 22.988-12.948 31.935-6.938 4.959 3.337 12.070 9.468 13.841 5.766 1.344-2.844 1.172-21.616 0.315-37.751h73.052c-0.308 10.383-0.522 24.51-0.586 26.139-0.986 25.189 18.065 17.786 45.755 15.621 12.413-0.972 42.996 4.824 49.178 8.375 14.534 8.361-1.715 23.875-20.365 20.888-33.592-5.388-38.837-7.896-79.483 12.734-13.162 6.681-46.441 5.488-59.389 0-17.864-7.596-31.513-30.305-37.059-26.311-4.338 3.115-9.332 18.114-16.078 33.042-4.073 8.989-11.54 20.844-20.308 16.286-8.746-4.545-7.918-16.914-3.365-25.668 0.007-0.014 15.028-29.948 22.559-42.182z" horiz-adv-x="715" />
<glyph unicode="&#xe629;" d="M131.845 167.404c-20.27-36.388-45.23-44.027-62.602-44.027-3.436 0-6.882 0.322-10.322 0.916-6.702-33.997-18.396-94.879-21.755-121.938-1.736-13.993 2.114-30.418 15.923-33.239 1.721-0.348 3.435-0.522 5.13-0.522 11.878 0 19.712 10.153 22.011 22.277 6.784 35.707 27.438 136.125 41.462 141.327 10.558 3.917 49.7-43.627 51.052-48.492 2.406-11.392-13.322-59.085-18.186-86.457-2.458-13.88 5.263-26.384 19.138-28.856 1.52-0.266 3.021-0.389 4.5-0.389 12.135 0 20.418 9.543 22.62 21.904 1.987 11.126 24.254 77.327 18.617 104.151-3.026 14.372-13.645 29.563-25.943 47.175-7.096 10.153-24.95 24.279-26.486 30.71-0.077 2.375-0.578 4.623-1.264 6.794l-0.532 21.678c-0.281-0.113-0.569-0.24-0.839-0.353-9.61-4.024-18.688-7.829-32.522-32.661zM109.338 390.262c13.456 0 49.362-4.485 49.362 49.346 0 17.951-17.951 40.392-49.362 40.392-27.274 0-40.376-22.072-40.376-49.346 0-26.937 26.91-40.392 40.376-40.392zM136.474 294.861c9.6 8.464 27.663 24.423 45.686 40.51-8.555 16.784-19.666 31.575-37.545 36.603-1.014 0.384-2.032 0.758-3.133 0.983-9.871 2.038-68.834 8.546-92.35-11.766-18.98-16.394-47.478-71.081-36.587-102.805 0.118-0.348 0.313-0.707 0.445-1.054 1.142-2.944 2.841-5.934 4.976-8.935 10.096-14.183 29.783-28.508 45.763-38.681 3.574-2.274 6.979-4.368 10.025-6.164 3.221-1.915 6.758-2.837 10.25-2.862 6.917 0.057 13.635 3.615 17.424 9.994 5.755 9.697 2.56 22.226-7.138 27.976-11.459 6.804-22.59 14.305-30.556 20.582-2.427 1.91-4.547 3.707-6.297 5.33-2.206 2.048-3.845 3.85-4.69 5.248l0.005 0.005c-0.717 0.819-1.316 1.582-1.7 2.217-0.062 0.226-0.066 0.537-0.108 0.793-1.218 7.531 4.869 26.291 12.785 40.934v-34.375c5.862 3.983 7.946 7.778 10.757 12.943 3.364 6.195 7.977 14.679 18.555 26.025 10.439 11.202 21.028 18.186 30.484 20.357 2.069 0.471 4.096 0.798 6.036 0.798 0.542 0 1.065-0.057 1.593-0.098 6.328-0.455 11.489-3.589 14.28-8.822 2.34-4.382 4.762-13.957-5.238-28.841-2.043-3.041-3.138-5.294-3.722-6.897zM250.199 325.243c-1.346 1.813-3.185 3.471-5.617 4.803-0.24 0.133-0.496 0.251-0.738 0.374-0.604 0.317-1.239 0.574-1.874 0.83-1.305 0.527-2.673 0.921-4.112 1.173l-0.005-0.005c-0.394 0.087-0.748 0.189-1.162 0.261-0.804 0.097-1.597 0.138-2.386 0.138-5.719 0-10.941-2.463-14.695-6.4-1.982-2.637-3.349-5.939-3.794-9.83-0.41-3.569-0.292-3.072-0.64-6.38 0-0.057-0.010-0.103-0.020-0.154-1.751-16.512-4.767-23.342-8.478-25.472-1.552 1.628-3.333 4.531-5.161 8.013-0.061 0.113-0.113 0.21-0.174 0.327-0.389 0.748-0.778 1.557-1.173 2.345l-29.865-29.44c0.333-0.512 0.686-1.019 1.034-1.526 2.294 0.947 4.777 1.69 7.572 1.7 13.512 0 18.023-8.54 19.328-12.211 1.137-3.169 1.377-6.656 1.024-10.24 1.93-0.348 3.906-0.578 5.986-0.578 4.388 0 9.139 0.829 14.254 2.667 28.631 10.245 31.539 37.939 34.35 64.722 0.22 2.007 0.635 9.129-3.655 14.884zM32.492 147.461c11.095-8.525 24.008-13.89 37.212-13.89 18.765 0 38.108 10.824 53.683 38.789 22.702 40.75 36.035 31.969 52.541 45.486 7.316 5.986 25.011 37.945 3.451 37.945-0.030 0-0.061 0-0.092 0-4.583-0.020-10.916-6.062-18.038-6.062-4.101 0-8.464 2.002-12.907 8.31l55.737 54.942c0.107 0.994 0.2 1.91 0.317 2.918 1.776 15.365 14.7 26.957 30.121 27.095l19.497 19.22c2.918-0.389 5.54-0.604 7.9-0.604 13.005 0 18.222 6.512 22.974 26.44 2.928 12.247 24.832 11.643 9.682 31.923-0.491 0.65-1.438 0.947-2.75 0.947-1.858 0-4.439-0.594-7.47-1.628l-2.673 5.156c0.358 0.538 0.681 1.122 0.85 1.797 0.763 3.123-1.152 6.293-4.281 7.045-0.466 0.112-0.937 0.169-1.398 0.169-2.627 0-5.012-1.787-5.658-4.444-0.763-3.133 1.152-6.293 4.281-7.055 0.327-0.082 0.661-0.108 0.978-0.108 0.266 0 0.533 0.021 0.804 0.041l2.314-4.45c-2.565-1.080-5.274-2.361-8.094-3.814l-3.486 4.587c0.266 0.604 0.481 1.224 0.533 1.92 0.22 3.215-2.202 5.995-5.417 6.221-0.144 0.010-0.286 0.016-0.43 0.016-3.026 0-5.591-2.355-5.796-5.427-0.226-3.215 2.192-6 5.406-6.226 0.087-0.005 0.169-0.010 0.256-0.010 0.527 0 1.029 0.113 1.521 0.246l2.867-3.773c-2.75-1.546-5.509-3.18-8.192-4.905l-3.6 4.214c0.231 0.615 0.405 1.244 0.415 1.94 0.041 3.226-2.53 5.868-5.76 5.909-0.020 0-0.041 0-0.066 0-3.19 0-5.796-2.55-5.837-5.76-0.051-3.221 2.53-5.868 5.75-5.913 0.63 0 1.193 0.164 1.762 0.333l3.056-3.569c-3.062-2.13-5.878-4.286-8.351-6.416l-2.775 3.246c0.231 0.61 0.41 1.25 0.42 1.941 0.046 3.221-2.535 5.873-5.765 5.913-0.020 0-0.051 0-0.071 0-3.19 0-5.791-2.565-5.832-5.76-0.046-3.231 2.53-5.868 5.755-5.909 0.010 0 0.020 0 0.025 0 0.614 0 1.178 0.159 1.731 0.327l2.786-3.251c-1.495-1.541-2.8-3.041-3.671-4.429-3.282-5.187 5.786-10.931-3.364-19.651-23.198-22.087-98.693-88.453-98.693-88.453s-20.434 2.683-4.459 26.455c8.929 13.291 6.421 21.858-2.161 21.858-6.774 0.005-17.337-5.335-29.051-17.904-20.905-22.421-15.641-31.237-32.973-41.697 7.342-6.067 18.841-14.48 31.964-22.272 7.035-4.173 12.022-10.839 14.049-18.765 2.022-7.926 0.84-16.164-3.338-23.199-5.494-9.257-15.591-15.002-26.358-15.002-5.484 0-10.885 1.485-15.611 4.296-20.48 12.144-45.056 29.097-58.107 46.669-21.596-24.909-8.156-70.892 21.888-93.967z" horiz-adv-x="300" />
<glyph unicode="&#xe62a;" d="M390.912 299.038l66.411 44.836c9.707 6.564 12.267 19.758 5.709 29.481-6.558 9.712-19.758 12.273-29.481 5.719l-43.899-29.645v-51.108c0.42 0.24 0.85 0.445 1.26 0.717zM435.901 402.611c9.339 7.081 11.182 20.403 4.091 29.742-7.070 9.344-20.398 11.182-29.752 4.096l-20.587-15.611v-53.284l46.249 35.057zM432.962 320.466l-43.32-31.447v-50.918c2.268 0.661 4.47 1.69 6.492 3.159l61.767 44.836c9.493 6.887 11.602 20.168 4.711 29.655-6.892 9.498-20.163 11.591-29.65 4.716zM391.572 177.122l59.541 43.556c9.462 6.933 11.52 20.209 4.587 29.671-6.922 9.467-20.199 11.525-29.671 4.603l-36.377-26.619v-52.383c0.64 0.368 1.3 0.722 1.92 1.173zM174.669 142.505v137.216c-7.28-6.231-18.012-16.87-34.35-35.594l-5.381 44.565c35.308 43.095 35.021 76.252 34.852 80.077-0.379 8.97-6.369 16.732-14.951 19.385-8.581 2.647-17.899-0.384-23.27-7.582l-49.111-65.736c-1.449-1.956-2.57-4.147-3.292-6.487l-20.598-67.21-0.86-2.299c-10.778-28.734-21.919-58.414-26.137-101.432l-26.358-32.123c-1.982-2.416-3.4-5.228-4.168-8.259-7.859-31.032 29.742-113.572 84.029-128.281 1.817-0.502 3.692-0.743 5.55-0.743 2.109 0 4.219 0.317 6.252 0.942l60.938 18.78c79.463 3.349 154.179 88.458 184.888 128.251h-143.98c-13.261-0.015-24.054 11.894-24.054 26.532zM365.584 480h-166.861c-7.419 0-13.44-7.127-13.44-15.923v-321.572c0-8.801 6.021-15.923 13.44-15.923h166.861c7.419 0 13.45 7.132 13.45 15.923v321.572c0 8.796-6.021 15.923-13.45 15.923zM273.751 460.534h27.428c2.928 0 5.31-2.37 5.31-5.31s-2.381-5.309-5.31-5.309h-27.428c-2.928 0-5.299 2.37-5.299 5.309 0 2.934 2.37 5.31 5.299 5.31zM212.173 195.584v231.337h139.981v-231.337h-139.981zM286.592 142.449c-10.45 0-18.908 8.458-18.908 18.908 0 2.867 0.681 5.55 1.817 7.977 3.010 6.446 9.493 10.937 17.091 10.937 7.639 0 14.198-4.572 17.178-11.1 1.080-2.386 1.721-5.012 1.721-7.808 0-10.455-8.458-18.913-18.898-18.913zM341.529 341.043c-1.813 3.251-5.238 5.478-9.241 5.478h-17.817l1.51 14.331c0.62 5.826-3.61 11.059-9.442 11.673-5.75 0.563-11.059-3.609-11.678-9.442l-1.751-16.563h-17.178l1.51 14.331c0.62 5.826-3.61 11.059-9.452 11.673-5.709 0.563-11.049-3.609-11.668-9.442l-1.751-16.563h-12.958c-5.868 0-10.619-4.752-10.619-10.614 0-5.868 4.751-10.619 10.619-10.619h10.711l-1.828-17.316h-18.468c-3.988 0-7.419-2.232-9.232-5.478-0.85-1.531-1.387-3.267-1.387-5.136s0.537-3.609 1.387-5.136c1.813-3.251 5.238-5.478 9.232-5.478h16.22l-1.511-14.331c-0.619-5.827 3.609-11.059 9.442-11.673 0.379-0.036 0.748-0.057 1.132-0.057 5.361 0 9.959 4.050 10.553 9.498l1.751 16.563h17.188l-1.521-14.331c-0.61-5.827 3.62-11.059 9.452-11.673 0.379-0.036 0.748-0.057 1.132-0.057 5.361 0 9.959 4.050 10.553 9.498l1.751 16.563h14.562c5.868 0 10.619 4.751 10.619 10.614s-4.762 10.619-10.619 10.619h-12.308l1.828 17.316h20.070c3.988 0 7.429 2.232 9.241 5.478 0.85 1.526 1.382 3.267 1.382 5.136-0.031 1.874-0.563 3.609-1.413 5.135zM289.039 307.973h-17.188l1.817 17.316h17.198l-1.828-17.316z" horiz-adv-x="467" />
<glyph unicode="&#xe62b;" d="M296.223 318.145c12.918 56.959-55.971 46.189-55.971 46.189-28.273 50.936-77.317 11.481-77.317 11.481-51.33 38.025-77.623-12.2-77.623-12.2-65.323 15.067-60.388-49.493-60.388-49.493-51.574-20.827-7.096-66.022-7.096-66.022-41.623-43.765 21.526-68.884 21.526-68.884 7.889-61.706 37.275 2.761 48.675-70.414h26.136c0 0.137-0.063 0.262-0.056 0.406 2.986 46.007-11.319 75.087-22.932 98.437-1.005-0.675-2.149-1.162-3.442-1.162 0 0-0.006 0-0.006 0-2.755-0.193-7.808-4.61-7.433-20.009 0.088-3.454-2.648-6.328-6.109-6.409-0.050 0-0.106 0-0.156 0-3.386 0-6.172 2.705-6.253 6.11-0.306 12.681 2.424 21.964 8.127 27.599 3.605 3.56 7.465 4.679 9.832 5.041-5.26 11.281-8.939 21.851-7.977 32.639-1.031-0.069-2.155-0.125-3.442-0.125-6.584 0-16.117 1.287-23.538 7.54-7.265 6.122-10.825 15.361-10.594 27.461 0.069 3.461 3.092 6.178 6.378 6.14 3.455-0.068 6.203-2.923 6.141-6.378-0.156-8.108 1.899-14.036 6.109-17.609 7.728-6.553 20.777-4.254 20.908-4.223 0.493 0.094 0.969 0 1.45-0.025 3.867 8.383 11.113 17.097 23.169 26.562 1.987 1.555 4.085 2.817 6.24 3.935-0.444 8.627-2.974 15.455-7.808 20.084-8.933 8.552-22.932 7.871-23.050 7.858-3.417-0.337-6.434 2.374-6.671 5.822-0.237 3.454 2.374 6.434 5.829 6.672 0.793 0.043 19.521 1.168 32.558-11.301 6.466-6.184 10.269-14.474 11.444-24.643 4.847 1.193 9.813 1.974 14.723 2.711 20.84 3.136 34.614 5.21 33.345 35.269-0.15 3.454 2.536 6.378 5.99 6.516 3.435 0.031 6.378-2.536 6.516-5.99 0.612-14.442-2.143-24.232-6.791-31.078 37.981-10.657 53.916 23.276 54.622 24.838 1.418 3.142 5.123 4.554 8.277 3.136 3.142-1.412 4.56-5.097 3.155-8.246-0.113-0.25-5.578-12.019-17.228-21.739 6.166-8.814 22.901-27.236 51.155-18.984 3.324 0.975 6.796-0.937 7.765-4.26 0.969-3.317-0.937-6.797-4.254-7.765-6.091-1.774-11.837-2.555-17.21-2.555-23.25 0-39.704 14.58-47.938 26.58-6.666-3.423-14.587-5.76-23.9-5.76-7.403 0-15.723 1.581-24.893 5.103-2.48-1.425-5.129-2.53-7.858-3.442 3.954-5.378 8.627-13.112 11.306-22.395 19.621-14.936 32.421-0.225 32.977 0.425 2.212 2.661 6.16 3.005 8.821 0.781 2.649-2.217 2.999-6.172 0.781-8.82-4.504-5.378-13.674-11.744-25.45-11.744-4.642 0-9.702 1.030-15.024 3.46-0.137-6.328-1.462-13.012-4.648-19.896-1.055-2.292-3.323-3.636-5.691-3.636-0.881 0-1.774 0.181-2.624 0.581-3.136 1.45-4.51 5.173-3.054 8.308 10.301 22.282-5.11 43.103-10.894 49.781-1.818-0.3-3.63-0.581-5.391-0.85-7.184-1.080-14.068-2.155-19.983-4.497-0.043-0.019-0.088-0.031-0.131-0.050-2.642-1.055-5.103-2.349-7.284-4.054-19.259-15.111-23.888-26.349-21.296-39.436 7.065 2.929 14.099 3.536 20.977 1.743 15.599-4.042 24.238-19.016 24.6-19.653 1.706-3.011 0.649-6.834-2.362-8.539-0.975-0.55-2.036-0.812-3.079-0.812-2.18 0-4.291 1.137-5.441 3.154-0.118 0.2-6.534 11.095-16.929 13.743-4.454 1.137-9.026 0.543-13.856-1.643 2.037-4.829 4.597-10.032 7.484-15.835 11.638-23.401 27.561-55.434 24.456-104.858h28.966c-3.592 95.42 43.765 110.599 43.765 110.599 44.496-27.986 70.314 21.532 70.314 21.532l-0.719 0.531c-0.719 0.512 48.075-24.931 63.861 16.129 17.091 44.389-36.587 60.538-36.587 60.538zM599.761 173.332c0 0 4.935 64.56-60.388 49.493 0 0-26.293 50.224-77.623 12.2 0 0-49.050 39.455-77.323-11.481 0 0-68.883 10.769-55.971-46.189 0 0-53.678-16.148-36.594-60.556 15.786-41.067 64.579-15.617 63.861-16.135l-0.712-0.531c0 0 25.812-49.519 70.308-21.532 0 0 47.363-15.18 43.772-110.6h28.96c-3.104 49.425 12.818 81.458 24.462 104.858 2.886 5.803 5.447 11 7.49 15.829-4.86 2.205-9.464 2.786-13.931 1.637-10.351-2.68-16.791-13.599-16.848-13.712-1.156-2.036-3.267-3.173-5.454-3.173-1.043 0-2.105 0.262-3.079 0.812-3.011 1.705-4.067 5.529-2.361 8.539 0.363 0.637 9.002 15.617 24.6 19.652 6.878 1.786 13.912 1.175 20.976-1.749 2.592 13.094-2.037 24.337-21.295 39.442-2.18 1.705-4.642 2.992-7.29 4.054-0.038 0.019-0.081 0.031-0.125 0.050-5.916 2.342-12.8 3.417-19.983 4.504-1.768 0.262-3.586 0.55-5.409 0.849-5.853-6.671-21.264-27.311-10.875-49.787 1.455-3.136 0.081-6.859-3.055-8.308-0.849-0.394-1.743-0.581-2.623-0.581-2.368 0-4.629 1.343-5.691 3.635-3.18 6.884-4.504 13.568-4.642 19.896-5.329-2.43-10.382-3.461-15.024-3.461-11.775 0-20.945 6.365-25.443 11.744-2.217 2.655-1.874 6.603 0.781 8.82 2.649 2.212 6.572 1.874 8.796-0.75 1.406-1.63 13.943-14.967 33.002-0.469 2.68 9.295 7.353 17.022 11.306 22.401-2.73 0.912-5.378 2.024-7.865 3.448-9.164-3.523-17.485-5.098-24.887-5.098-9.314 0-17.228 2.337-23.9 5.76-8.227-12-24.688-26.58-47.938-26.58-5.378 0-11.12 0.781-17.21 2.555-3.317 0.969-5.223 4.447-4.254 7.765s4.435 5.223 7.765 4.26c28.448-8.302 45.077 10.145 51.18 18.971-11.669 9.726-17.147 21.502-17.253 21.752-1.406 3.154 0.012 6.859 3.173 8.264s6.853-0.006 8.259-3.154c0.706-1.562 16.642-35.5 54.616-24.837-4.654 6.846-7.402 16.635-6.791 31.078 0.144 3.454 3.18 6.053 6.515 5.99 3.454-0.144 6.14-3.061 5.99-6.515-1.268-30.053 12.5-32.127 33.346-35.269 4.91-0.737 9.882-1.518 14.724-2.711 1.175 10.17 4.978 18.466 11.444 24.644 13.031 12.469 31.753 11.363 32.552 11.3 3.448-0.238 6.059-3.217 5.828-6.671-0.237-3.435-3.217-6.053-6.646-5.829-0.206 0.025-14.187 0.724-23.138-7.914-4.804-4.629-7.309-11.432-7.746-20.021 2.155-1.118 4.254-2.38 6.24-3.935 12.057-9.464 19.297-18.178 23.163-26.555 0.487 0.019 0.962 0.106 1.462 0.012 0.325-0.056 13.237-2.28 20.908 4.223 4.204 3.573 6.26 9.502 6.11 17.61-0.063 3.461 2.686 6.315 6.14 6.378 3.442-0.031 6.316-2.686 6.378-6.14 0.231-12.1-3.336-21.339-10.601-27.454-7.421-6.253-16.947-7.54-23.538-7.54-1.293 0-2.418 0.056-3.442 0.125 0.956-10.788-2.723-21.351-7.977-32.639 2.374-0.363 6.222-1.474 9.832-5.048 5.703-5.635 8.433-14.923 8.127-27.592-0.081-3.404-2.867-6.11-6.253-6.11-0.050 0-0.106 0-0.156 0-3.455 0.087-6.191 2.954-6.11 6.409 0.375 15.467-4.729 19.853-7.477 20.009-1.255 0.075-2.361 0.599-3.342 1.3-11.613-23.363-25.981-52.467-22.995-98.568 0.006-0.144-0.056-0.262-0.056-0.406h26.143c11.4 73.188 40.785 8.708 48.675 70.427 0 0 63.143 25.118 21.533 68.884-0.006-0.006 44.471 45.195-7.102 66.022zM494.122 264.76c-6.028 0-11.344 4.373-12.344 10.514-0.363 2.23-0.75 4.429-1.162 6.621-1.274 6.797 3.199 13.337 10.001 14.618 6.791 1.287 13.343-3.199 14.618-10.001 0.443-2.374 0.868-4.779 1.262-7.202 1.112-6.827-3.523-13.268-10.344-14.38-0.681-0.113-1.356-0.168-2.030-0.168zM483.352 307.932c-5.185 0-10.033 3.248-11.832 8.42-3.935 11.326-8.752 22.22-14.324 32.384-3.324 6.065-1.106 13.674 4.96 17.004 6.072 3.317 13.68 1.099 17.004-4.96 6.24-11.381 11.632-23.556 16.023-36.207 2.274-6.528-1.187-13.668-7.721-15.935-1.362-0.481-2.748-0.706-4.111-0.706zM447.315 373.38c-3.648 0-7.272 1.587-9.745 4.647-7.358 9.096-15.617 17.597-24.563 25.274-5.248 4.51-5.847 12.418-1.337 17.66 4.504 5.248 12.406 5.853 17.659 1.337 10.082-8.664 19.402-18.26 27.711-28.523 4.348-5.378 3.517-13.268-1.856-17.609-2.317-1.874-5.103-2.786-7.871-2.786zM144.038 413.047c-3.173 0-6.359 1.199-8.796 3.611-4.923 4.86-4.972 12.787-0.119 17.709 9.196 9.314 20.44 17.472 33.439 24.25 6.135 3.192 13.693 0.818 16.898-5.316 3.198-6.135 0.819-13.699-5.316-16.897-10.682-5.572-19.827-12.175-27.186-19.634-2.455-2.48-5.684-3.723-8.921-3.723zM390.675 422.136c-2.174 0-4.379 0.568-6.384 1.761-10.038 5.966-20.771 11.195-31.896 15.555-6.44 2.524-9.62 9.783-7.096 16.229 2.524 6.434 9.788 9.608 16.229 7.090 12.387-4.854 24.35-10.682 35.55-17.348 5.947-3.529 7.902-11.213 4.366-17.16-2.337-3.942-6.497-6.128-10.769-6.128zM209.368 448.366c-5.541 0-10.601 3.704-12.1 9.308-1.774 6.684 2.205 13.543 8.889 15.324 12.431 3.304 25.606 5.566 39.143 6.715 6.947 0.55 12.956-4.522 13.543-11.413 0.587-6.896-4.523-12.956-11.413-13.543-12.094-1.031-23.813-3.036-34.839-5.972-1.075-0.281-2.155-0.418-3.224-0.418zM321.067 449.528c-0.906 0-1.824 0.1-2.736 0.3-11.588 2.586-23.463 4.317-35.3 5.154-6.902 0.488-12.106 6.471-11.613 13.375 0.488 6.897 6.384 12.119 13.368 11.613 13.081-0.918 26.199-2.836 38.999-5.691 6.753-1.506 11-8.196 9.495-14.955-1.305-5.834-6.484-9.795-12.212-9.795zM365.406 6.93c-6.578 0-12.094 5.128-12.493 11.775-0.413 6.902 4.854 12.837 11.757 13.25 11.8 0.7 22.751 3.086 32.552 7.084 6.397 2.618 13.712-0.456 16.329-6.859 2.611-6.403-0.462-13.718-6.865-16.329-12.35-5.041-25.981-8.034-40.523-8.901-0.25-0.012-0.506-0.019-0.756-0.019zM328.026 9.404c-0.743 0-1.499 0.068-2.249 0.206-12.663 2.299-25.568 5.947-38.349 10.832-6.459 2.474-9.695 9.707-7.228 16.166s9.702 9.695 16.166 7.228c11.338-4.329 22.745-7.558 33.882-9.582 6.803-1.231 11.319-7.752 10.082-14.562-1.099-6.047-6.372-10.288-12.306-10.288zM258.030 35.872c-2.149 0-4.329 0.556-6.315 1.718-11.732 6.872-22.644 14.592-32.446 22.95-5.266 4.491-5.897 12.394-1.405 17.654 4.479 5.272 12.387 5.89 17.654 1.406 8.69-7.409 18.397-14.267 28.86-20.402 5.972-3.498 7.977-11.17 4.479-17.135-2.337-3.973-6.522-6.19-10.825-6.19zM201.715 84.872c-3.873 0-7.69 1.793-10.145 5.166-9.27 12.781-15.355 25.706-18.090 38.424-1.45 6.765 2.855 13.418 9.62 14.868 6.759 1.443 13.424-2.855 14.874-9.62 1.987-9.283 6.653-19.027 13.868-28.966 4.060-5.597 2.817-13.43-2.78-17.491-2.218-1.606-4.798-2.38-7.346-2.38z" horiz-adv-x="625" />
<glyph unicode="&#xe62c;" d="M332.457 407.344l-113.072 70.267c-3.596 2.233-7.936 2.933-12.060 1.95l-195.19-46.851c-7.115-1.709-12.133-8.072-12.133-15.396v-205.191c0-5.337 2.687-10.315 7.146-13.242l117.118-76.822c2.603-1.709 5.63-2.598 8.683-2.598 1.359 0 2.724 0.173 4.052 0.528l191.138 50.594c6.942 1.84 11.778 8.119 11.778 15.307v208.009c0.010 5.473-2.813 10.56-7.46 13.446zM208.286 447.227l74.762-46.464-152.95-34.964-73.419 45.038 151.606 36.39zM31.67 389.026l80.064-49.115 4.752-174.875-84.821 55.639v168.351zM148.417 155.767l-4.904 180.604 164.749 37.661v-175.957l-159.845-42.308zM168.273 177.802c-1.155 0-2.29 0.377-3.22 1.092-1.292 0.998-2.054 2.541-2.054 4.182v131.385c0 2.499 1.751 4.658 4.192 5.171l114.886 24.037c1.568 0.324 3.178-0.068 4.413-1.071s1.945-2.504 1.945-4.099v-125.007c0-2.394-1.615-4.49-3.926-5.103l-114.881-30.416c-0.445-0.115-0.899-0.173-1.354-0.173zM173.553 310.175v-120.24l104.326 27.618v114.452l-104.326-21.832zM505.596 113.233c-23.201 26.646-63.382 27.801-102.235 28.915-53.308 1.526-78.574 5.641-79.959 36.558l-21.094-0.941c2.421-53.904 54.5-55.399 100.452-56.721 34.305-0.983 69.786-2.002 86.918-21.675 10.257-11.778 13.88-29.913 11.104-55.31-2.536-9.29-42.7-28.601-91.748-45.048 0.005 0.34 0.063 0.669 0.058 1.009-0.764 68.192-59.001 69.885-110.37 71.38-55.749 1.62-113.391 3.298-135.452 67.329l-19.954-6.875c26.808-77.837 97.77-79.901 154.79-81.559 37.442-1.087 63.481-2.713 77.555-15.626l-37.661-13.948-0.324-6.99c-1.129-24.785 10.916-35.972 18.188-40.437 5.756-3.529 12.421-5.301 19.108-5.301 3.811 0 7.611 0.654 11.266 1.803l0.010-0.036c114.688 33.238 134.124 59.283 135.505 71.851 3.471 31.728-1.814 55.148-16.154 71.621zM366.902-8.705c-4.459 2.729-7.151 7.748-7.941 14.68l27.18 10.063c1.156-4.71 1.772-10.1 1.84-16.259 0.042-3.759-1.72-6.681-5.254-8.688-4.815-2.734-11.177-2.651-15.825 0.204zM244.75 274.422c0 0 0 0 0 0-3.001 0-5.876 0.952-8.553 2.823-4.025 2.823-6.76 6.817-7.696 11.25-0.894 4.177-0.136 8.38 2.070 11.512 4.036 5.772 8.689 8.709 13.817 8.709 4.773 0 8.349-2.608 10.268-4.010l0.507-0.366c3.027-2.107 5.469-6.169 6.205-10.336 0.711-4.015-0.12-7.857-2.41-11.12-3.827-5.463-8.871-8.464-14.209-8.464zM244.389 298.156c-1.94 0-4.072-2.635-5.171-4.209-0.418-0.59-0.696-1.824-0.387-3.267 0.272-1.281 1.088-3.152 3.424-4.794 0.873-0.611 1.689-0.909 2.499-0.909v0c1.741 0 3.816 1.48 5.552 3.957 1.992 2.839-0.607 6.326-1.192 6.749l-0.685 0.496c-1.145 0.826-2.708 1.976-4.041 1.976zM216.588 277.089c-1.767 1.228-4.705 3.304-7.371 5.406 1.861 3.513 4.506 8.077 5.651 10.021l2.682 4.543-9.086 5.369-2.687-4.543c-0.371-0.643-2.619-4.449-4.695-8.244-3.576 2.891-7.69 5.793-8.328 6.242l-4.323 3.027-6.048-8.647 4.323-3.027c2.53-1.778 6.713-4.867 9.269-7.078-1.26-1.856-2.761-3.769-4.010-5.333-0.994-1.244-1.871-2.353-2.494-3.231l-3.042-4.318 8.626-6.080 3.042 4.313c0.523 0.743 1.27 1.673 2.112 2.724 1.197 1.495 2.52 3.168 3.769 4.919 2.457-1.871 4.893-3.57 6.587-4.747l5.129-3.587 6.043 8.657-5.149 3.612zM221.935 219.070c-13.028 0-25.464 5.5-34.373 15.484l-3.513 3.936 7.873 7.026 3.518-3.936c8.297-9.3 20.566-13.566 32.82-11.397 12.102 2.138 22.113 10.204 26.792 21.581l2.008 4.883 9.76-4.015-2.007-4.883c-6.048-14.737-19.035-25.193-34.718-27.969-2.724-0.476-5.458-0.711-8.161-0.711z" horiz-adv-x="523" />
</font>
</defs>
</svg>
